<?xml version="1.0" standalone="no"?>
<!DOCTYPE svg PUBLIC "-//W3C//DTD SVG 1.1//EN" "http://www.w3.org/Graphics/SVG/1.1/DTD/svg11.dtd" >
<svg xmlns="http://www.w3.org/2000/svg">
<metadata></metadata>
<defs>
<font id="rockinghamitalic" horiz-adv-x="500" >
<font-face units-per-em="1000" ascent="786" descent="-214" />
<missing-glyph horiz-adv-x="250" />
<glyph unicode="&#xfb01;" horiz-adv-x="566" d="M500 573q-23 0 -40 17t-17 40q0 24 16.5 40.5t40.5 16.5q23 0 40 -17t17 -40t-17 -40t-40 -17zM-18 -1l15 65l60 -1l79 342l-70 -2l15 64l70 -1q25 97 40 128q43 83 127 83q47 0 93 -26l-25 -61q-34 17 -58 17q-35 0 -56 -31.5t-38 -109.5h253q7 0 37 1l-93 -404l67 1 l-15 -65q-45 1 -67 1h-83q-18 0 -60 -1l15 65l59 -1l79 342h-206l-79 -342l65 1l-15 -65q-32 1 -65 1h-83q-30 0 -61 -1z" />
<glyph unicode="&#xfb02;" horiz-adv-x="566" d="M-17 -1l15 65l60 -1l79 342l-70 -1l15 64l70 -1q25 98 40 127q43 84 127 84q46 0 93 -26l-25 -61q-37 17 -58 17q-35 0 -56 -31t-38 -110l65 1l-15 -64l-64 1l-79 -342l65 1l-15 -65q-32 1 -65 1h-83q-30 0 -61 -1zM278 -1l15 65l56 -1l126 543l-66 -2l15 64q45 -1 65 -1 h47q22 0 37 2l-140 -606l69 1l-15 -65q-34 1 -69 1h-83q-28 0 -57 -1z" />
<glyph unicode="&#xfb03;" horiz-adv-x="858" d="M735 630q0 24 16.5 40.5t40.5 16.5q23 0 40 -17t17 -40t-17 -40t-40 -17t-40 17t-17 40zM-18 -1l15 65l60 -1l79 342l-70 -2l15 64l70 -1q25 97 40 128q43 83 127 83q47 0 93 -26l-25 -61q-34 17 -58 17q-35 0 -56 -31.5t-38 -109.5h208q26 98 41 128q43 83 126 83 q49 0 93 -26l-25 -61q-34 17 -58 17q-35 0 -55.5 -31t-38.5 -110h254q8 0 38 1l-94 -404l68 1l-15 -65q-45 1 -67 1h-84q-17 0 -59 -1l15 65l59 -1l79 342h-208l-79 -342l65 1l-15 -65q-32 1 -64 1h-84q-30 0 -61 -1l15 65l61 -1l79 342h-208l-79 -342l65 1l-15 -65 q-32 1 -65 1h-83q-30 0 -61 -1z" />
<glyph unicode="&#xfb04;" horiz-adv-x="857" d="M-18 -1l15 65l60 -1l79 342l-70 -2l15 64l70 -1q25 97 40 128q43 83 127 83q47 0 93 -26l-25 -61q-34 17 -58 17q-35 0 -56 -31.5t-38 -109.5h208q26 98 41 128q43 83 126 83q49 0 93 -26l-25 -61q-34 17 -58 17q-35 0 -55.5 -31t-38.5 -110l65 1l-15 -64l-64 2l-79 -342 l65 1l-15 -65q-32 1 -64 1h-84q-30 0 -61 -1l15 65l61 -1l79 342h-208l-79 -342l65 1l-15 -65q-32 1 -65 1h-83q-30 0 -61 -1zM568 -1l15 65l57 -1l125 543l-66 -2l15 64q45 -1 65 -1h47q22 0 37 2l-140 -606l70 1l-15 -65q-34 1 -69 1h-84q-28 0 -57 -1z" />
<glyph horiz-adv-x="0" />
<glyph horiz-adv-x="333" />
<glyph unicode=" "  horiz-adv-x="250" />
<glyph unicode="&#x09;" horiz-adv-x="250" />
<glyph unicode="&#xa0;" horiz-adv-x="250" />
<glyph unicode="!" horiz-adv-x="230" d="M80 193l63 360l26 114h85l-21 -114l-103 -360h-50zM15 0l27 117h90l-27 -117h-90z" />
<glyph unicode="&#x22;" horiz-adv-x="301" d="M221 409l50 262l72 -17l-70 -257zM101 409l50 262l72 -17l-70 -257z" />
<glyph unicode="#" horiz-adv-x="593" d="M95 98l59 130h-129l23 52h130l55 123h-130l24 53h130l57 127h61l-57 -127h118l57 127h62l-58 -127h121l-23 -53h-122l-55 -123h121l-23 -52h-122l-58 -130h-61l58 130h-118l-58 -130h-62zM238 280h119l56 123h-119z" />
<glyph unicode="$" d="M-2 0q18 56 46 198h70l-16 -68q51 -70 129 -70q54 0 91 33t37 80q0 38 -26 72.5t-95 86.5q-65 50 -90 88.5t-25 89.5q0 75 52.5 122.5t135.5 47.5l19 83h66l-22 -96q49 -13 79 -41l9 41h73q-12 -45 -41 -181h-73l16 70q-49 57 -118 57q-49 0 -81 -26.5t-32 -67.5 q0 -44 40 -83q19 -16 75 -60q68 -53 94.5 -95.5t26.5 -96.5q0 -102 -88 -161q-47 -31 -121 -34l-23 -100h-66l25 111q-33 13 -49.5 23.5t-35.5 30.5l-12 -54h-70z" />
<glyph unicode="%" horiz-adv-x="576" d="M37 16l518 658l29 -23l-518 -658zM163 328q-39 0 -61.5 29t-22.5 80q0 100 42 168t104 68q38 0 61.5 -30t23.5 -80q0 -108 -51 -184q-35 -51 -96 -51zM169 368q17 0 33.5 13.5t26.5 35.5q33 74 33 156q0 27 -11.5 43.5t-29.5 16.5q-35 0 -56 -44q-37 -72 -37 -158 q0 -63 41 -63zM311 103q0 100 42 168t104 68q38 0 61.5 -30t23.5 -80q0 -108 -51 -184q-35 -51 -96 -51q-39 0 -61.5 29t-22.5 80zM360 97q0 -63 41 -63q17 0 33.5 13.5t26.5 35.5q33 74 33 156q0 27 -11.5 43.5t-29.5 16.5q-35 0 -56 -44q-37 -72 -37 -158z" />
<glyph unicode="&#x26;" horiz-adv-x="650" d="M28 179q0 144 191 239q-31 66 -31 112q0 64 43.5 106t110.5 42q57 0 94.5 -35.5t37.5 -89.5q0 -104 -150 -163l104 -193q63 79 82 157q26 -2 58 -2h41q8 0 34 2l-16 -72l-69 2q-29 -69 -93 -154l37 -65l75 1l-16 -68q-19 2 -34 2h-40q-23 0 -38 -3l-41 75 q-92 -83 -187 -83q-82 0 -137.5 54.5t-55.5 135.5zM291 446q62 27 88.5 53t26.5 58q0 26 -20 43.5t-49 17.5q-32 0 -53.5 -23t-21.5 -57q0 -42 29 -92zM107 184q0 -53 35.5 -89t87.5 -36q82 0 143 75l-121 219q-70 -30 -107.5 -74t-37.5 -95z" />
<glyph unicode="'" horiz-adv-x="181" d="M101 409l50 262l72 -17l-70 -257z" />
<glyph unicode="(" horiz-adv-x="341" d="M28 155q0 189 96.5 333.5t253.5 189.5l10 -62q-60 -19 -104 -53.5t-82 -94.5q-94 -145 -94 -335q0 -178 109 -277l-32 -55q-157 127 -157 354z" />
<glyph unicode=")" horiz-adv-x="341" d="M141 12q94 145 94 335q0 177 -109 276l32 55q157 -126 157 -353q0 -189 -96.5 -333t-253.5 -191l-10 63q59 18 103 53t83 95z" />
<glyph unicode="*" d="M195 331l-54 60l127 91l-143 64l40 69l126 -92l16 155l80 -16l-49 -149l152 33l9 -80h-157l79 -135l-74 -33l-47 149z" />
<glyph unicode="+" d="M193 157l33 141h-139l16 70h139l33 142h75l-32 -142h138l-16 -70h-138l-33 -141h-76z" />
<glyph unicode="," horiz-adv-x="217" d="M19 0l27 117h90l-24 -105q-13 -54 -19 -71t-18 -31q-30 -35 -84 -35q-5 0 -8 1l10 43q30 3 45 20.5t22 60.5h-41z" />
<glyph unicode="-" horiz-adv-x="226" d="M-7 206l17 74h226l-17 -74h-226z" />
<glyph unicode="." horiz-adv-x="209" d="M12 0l27 117h89l-27 -117h-89z" />
<glyph unicode="/" horiz-adv-x="421" d="M-53 -187h-73l535 854h73z" />
<glyph unicode="0" d="M211 -11q-74 0 -116.5 57.5t-42.5 158.5q0 102 27 200.5t74 168.5q70 104 178 104q73 0 117 -59t44 -157q0 -100 -27 -201t-73 -171q-29 -46 -79 -73.5t-102 -27.5zM222 59q35 0 68.5 28t53.5 74q29 69 47 156.5t18 162.5q0 57 -24 92.5t-63 35.5q-70 0 -115 -91 q-72 -149 -72 -323q0 -64 23 -99.5t64 -35.5z" />
<glyph unicode="1" d="M77 -2l16 72l82 -2l122 531l-89 -2l16 72q28 -2 81 -2h39q14 0 26 1q15 0 27 1l-139 -601l85 2l-16 -72q-33 2 -84 2h-84q-43 0 -82 -2z" />
<glyph unicode="2" d="M25 -2q7 104 51.5 170t163.5 151q83 58 118 98q46 55 46 107q0 36 -24 60t-60 24q-71 0 -114 -80q-18 -33 -34 -110h-75q17 107 58 165q67 95 171 95q69 0 115 -43.5t46 -108.5q0 -79 -62 -148q-30 -34 -114 -95q-123 -88 -156.5 -123.5t-43.5 -90.5h217l36 158h71 q-23 -92 -53 -229q-28 2 -70 2h-217q-35 0 -70 -2z" />
<glyph unicode="3" d="M32 181q0 13 3 40h77q-3 -30 -3 -40q0 -54 30.5 -88t79.5 -34q57 0 98 42t41 101q0 71 -60 97q-30 14 -98 15l16 69q11 -1 27 -1q69 0 114.5 38.5t45.5 96.5q0 40 -23.5 65.5t-61.5 25.5q-29 0 -56.5 -15.5t-43.5 -42.5t-25 -68h-80q17 91 73 143.5t136 52.5 q70 0 117 -46t47 -115q0 -83 -60 -133q-28 -24 -80 -41q46 -18 70.5 -55t24.5 -87q0 -88 -64.5 -150t-155.5 -62q-86 0 -137.5 52t-51.5 140z" />
<glyph unicode="4" d="M170 -2l16 71l67 -1l28 121h-228q-4 32 -22 66l363 423h83l-97 -423h91l-16 -66h-90l-28 -121l71 1l-17 -71q-34 2 -73 2h-80q-37 0 -68 -2zM108 255h189l69 300z" />
<glyph unicode="5" d="M80 49q-38 47 -38 130q0 19 2 34h81q0 -8 -0.5 -17t-1 -14t-0.5 -9q0 -55 24 -82q29 -32 75 -32q59 0 103.5 57.5t44.5 134.5q0 45 -24 73t-64 28q-52 0 -100 -48l-61 47l73 318q32 -2 71 -2h188q32 0 70 2q-20 -63 -39 -170h-69l22 99h-188l-47 -205q48 29 93 29 q68 0 113 -50t45 -125q0 -105 -71 -181.5t-168 -76.5q-85 0 -134 60z" />
<glyph unicode="6" d="M103 45q-49 55 -49 158q0 98 28.5 195t78.5 171q75 109 186 109q73 0 113 -43.5t40 -121.5q0 -15 -3 -42h-74q3 22 3 35q0 48 -21 75t-59 27q-82 0 -138 -101q-26 -46 -51 -140q66 57 136 57t114 -51t44 -132q0 -106 -62.5 -179t-153.5 -73q-82 0 -132 56zM134 204 q0 -145 103 -145q57 0 91 49q40 55 40 128q0 52 -26 85t-66 33q-31 0 -59.5 -13t-72.5 -46q-10 -53 -10 -91z" />
<glyph unicode="7" d="M63 -2l16 72l68 -2q68 268 283 530h-246l-23 -101h-72q10 35 21 87q3 15 6 29.5t6 26t7 29.5q23 -2 63 -2h269q42 0 76 2l-16 -71q-70 -71 -157.5 -234t-126.5 -296l71 2l-16 -72q-30 2 -70 2h-84q-41 0 -75 -2z" />
<glyph unicode="8" d="M41 162q0 71 40 124.5t108 72.5q-67 50 -67 127q0 35 16.5 72.5t43.5 64.5q57 55 140 55q75 0 122.5 -45t47.5 -116q0 -76 -52 -130q-25 -26 -73 -47q72 -50 72 -137q0 -89 -64.5 -151.5t-155.5 -62.5q-78 0 -128 48.5t-50 124.5zM294 377q47 0 81 42t34 100 q0 38 -24.5 63.5t-60.5 25.5q-49 0 -84 -42.5t-35 -101.5q0 -37 25.5 -62t63.5 -25zM124 159q0 -44 27.5 -72t70.5 -28q55 0 94.5 46t39.5 109q0 44 -27 73.5t-67 29.5q-56 0 -97 -47t-41 -111z" />
<glyph unicode="9" d="M45 154q0 14 3 42h76q-4 -23 -4 -35q0 -46 22.5 -74t59.5 -28q77 0 133 98q37 62 52 138q-70 -52 -136 -52q-65 0 -110.5 52t-45.5 126q0 101 61 182q27 35 68.5 55t87.5 20q87 0 135 -59t48 -165q0 -94 -30 -189.5t-82 -169.5q-75 -106 -186 -106q-69 0 -110.5 45 t-41.5 120zM271 313q53 0 133 64q8 56 8 91q0 67 -26 103.5t-74 36.5q-55 0 -94.5 -52t-39.5 -126q0 -53 25.5 -85t67.5 -32z" />
<glyph unicode=":" horiz-adv-x="209" d="M93 349l27 117h89l-27 -117h-89zM12 0l27 117h89l-27 -117h-89z" />
<glyph unicode=";" horiz-adv-x="210" d="M93 349l27 117h84l-27 -117h-84zM12 0l27 117h90l-24 -105q-12 -52 -18.5 -69.5t-18.5 -32.5q-29 -35 -77 -35q-4 0 -8 1l10 43q26 4 38.5 20.5t21.5 60.5h-41z" />
<glyph unicode="&#x3c;" d="M42 345v7l416 265v-43l-300 -194l300 -201v-113z" />
<glyph unicode="=" d="M107 374l16 70h345l-16 -70h-345zM72 223l16 70h345l-16 -70h-345z" />
<glyph unicode="&#x3e;" d="M42 66v43l300 194l-300 200v114l416 -279v-7z" />
<glyph unicode="?" horiz-adv-x="440" d="M160 188l33 198q31 -8 54 -8q58 0 98.5 41t40.5 100q0 40 -25.5 66t-63.5 26q-83 0 -113 -93h-79q19 74 72 117t124 43q74 0 120.5 -45t46.5 -117q0 -80 -55 -140q-59 -63 -156 -63h-10l-29 -125h-58zM104 0l27 117h89l-27 -117h-89z" />
<glyph unicode="@" horiz-adv-x="743" d="M50 221q0 151 107.5 258.5t259.5 107.5q124 0 211 -78t87 -188q0 -160 -137 -241q-62 -36 -107 -36q-48 0 -48 44v4q-37 -44 -98 -44t-99 41t-38 108q0 90 59.5 155t141.5 65q40 0 65 -14.5t45 -49.5l14 57h57l-67 -281q-4 -15 -4 -23q0 -17 18 -17q17 0 43.5 14.5 t46.5 34.5q66 68 66 171q0 101 -74 168t-186 67q-134 0 -226.5 -92.5t-92.5 -226.5q0 -123 81.5 -203t208.5 -80q63 0 112.5 22.5t109.5 77.5h54q-55 -64 -104 -94q-80 -48 -176 -48q-142 0 -236 91.5t-94 229.5zM259 209q0 -44 25 -72t65 -28q67 0 100 68q23 46 23 90 q0 40 -22 64t-58 24q-53 0 -93 -44t-40 -102z" />
<glyph unicode="A" horiz-adv-x="629" d="M20 0q-34 0 -66 -2l16 72l53 -2l287 531l-71 -2l16 72q38 -2 89 -2h106q64 0 100 2l-16 -72l-62 2l63 -531l61 2l-17 -72q-46 2 -61 2h-64q-51 0 -93 -2l17 72l70 -2l-19 172h-229l-92 -172l72 2l-17 -72q-35 2 -77 2h-66zM234 303h188l-31 299z" />
<glyph unicode="B" horiz-adv-x="575" d="M3 -2l16 72l57 -2l123 531l-68 -2l17 72q47 -2 67 -2h80q92 0 113.5 -1.5t50.5 -10.5q46 -14 75 -56t29 -94q0 -80 -60 -125q-26 -19 -81 -39q37 -18 58 -39q43 -43 43 -109q0 -63 -39.5 -114.5t-100.5 -66.5q-33 -8 -68 -10t-162 -2h-92q-28 0 -58 -2zM240 380 q22 -1 56 -1q48 0 72.5 5t47.5 19q54 33 54 99q0 28 -12.5 50.5t-33.5 32.5q-28 14 -86 14q-24 0 -47 -2zM169 70q27 -1 60 -1q99 0 142 22q26 14 42.5 45t16.5 68q0 84 -80 105q-29 7 -124 7z" />
<glyph unicode="C" horiz-adv-x="699" d="M59 271q0 143 94 257q57 68 141.5 109t169.5 41q121 0 194 -76l15 65h70q-19 -75 -45 -199h-71q1 6 1 13q0 53 -47.5 89t-118.5 36q-119 0 -214.5 -103t-95.5 -232q0 -92 54 -151.5t139 -59.5q67 0 128.5 37t103.5 102l64 -54q-56 -75 -132.5 -116t-160.5 -41 q-130 0 -209.5 78t-79.5 205z" />
<glyph unicode="D" horiz-adv-x="700" d="M-2 -2l16 72l63 -2l122 531l-72 -2l16 72q47 -2 67 -2h97q107 0 137.5 -2t64.5 -11q82 -23 132.5 -98.5t50.5 -175.5q0 -99 -43 -186t-117 -137q-46 -32 -101.5 -45.5t-139.5 -12.5l-138 1h-92q-30 0 -63 -2zM169 70q58 -1 103 -1q69 -1 111 8t79 32q61 38 99 114t38 160 q0 128 -85 182q-55 33 -180 33q-25 0 -43 -1z" />
<glyph unicode="E" horiz-adv-x="594" d="M-2 -2l16 71l62 -1l123 531l-72 -1l16 71q46 -2 65 -2h369q35 0 68 2q-32 -111 -49 -215h-82l33 144h-257l-51 -224h218l-16 -69h-218l-55 -236h263l34 148h76q-13 -52 -51 -219q-24 2 -58 2h-372q-30 0 -62 -2z" />
<glyph unicode="F" horiz-adv-x="555" d="M-2 -2l16 72l63 -2l122 531l-71 -1l16 71q45 -2 65 -2h339q43 0 78 2q-8 -31 -24 -101q-7 -34 -23 -104h-77l30 134h-241l-51 -223h200l-16 -69h-200l-55 -238l70 2l-16 -72q-36 2 -70 2h-92q-30 0 -63 -2z" />
<glyph unicode="G" horiz-adv-x="730" d="M49 275q0 106 57.5 199t155 148.5t207.5 55.5q133 0 212 -84l17 73h69l-23 -100l-22 -98h-70q-12 62 -46 91q-54 46 -144 46q-128 0 -224 -99.5t-96 -231.5q0 -95 59 -154.5t153 -59.5q85 0 150 49t86 128l-155 -2l17 73q18 -2 86 -2h95q57 0 79 2q-28 -150 -124.5 -235 t-239.5 -85q-134 0 -216.5 79t-82.5 207z" />
<glyph unicode="H" horiz-adv-x="713" d="M0 -2l16 72l61 -2l122 531l-71 -1l17 71q43 -2 62 -2h100q18 0 60 2l-16 -71l-60 1l-49 -214h298l49 214l-71 -1l17 71q43 -2 62 -2h100q18 0 60 2l-16 -71l-60 1l-122 -531l70 2l-16 -72q-32 2 -62 2h-100q-29 0 -61 -2l16 72l61 -2l57 248h-298l-57 -248l70 2l-16 -72 q-32 2 -62 2h-100q-29 0 -61 -2z" />
<glyph unicode="I" horiz-adv-x="323" d="M-2 -2l16 72l62 -2l123 531l-73 -2l16 72q43 -2 63 -2h101q18 0 60 2l-16 -72l-59 2l-123 -531l70 2l-16 -72q-31 2 -61 2h-101q-30 0 -62 -2z" />
<glyph unicode="J" horiz-adv-x="316" d="M13 -85q23 26 38 66t35 129l113 489l-71 -2l16 72q45 -2 65 -2h98q18 0 63 2l-16 -72l-63 2l-118 -514q-25 -107 -42 -151q-55 -140 -225 -140q-22 0 -40 2l18 78q9 -1 20 -1q72 0 109 42z" />
<glyph unicode="K" horiz-adv-x="667" d="M3 -2l16 72l57 -2l123 531l-68 -2l17 72q46 -2 67 -2h92q19 0 65 2l-17 -72l-64 2l-58 -251l296 251l-70 -2l16 72q38 -2 86 -2h85q30 0 66 2l-16 -72l-65 2l-296 -251l206 -280l67 2l-16 -72q-32 2 -68 2h-73q-49 0 -91 -2l16 72l57 -2l-200 280l-65 -280l75 2l-16 -72 q-34 2 -67 2h-99q-28 0 -58 -2z" />
<glyph unicode="L" horiz-adv-x="558" d="M-2 -2l16 71l63 -1l122 531l-73 -2l17 72q45 -2 65 -2h94q18 0 64 2l-16 -72l-59 2l-122 -530h252l52 224h69l-7 -23l-61 -272q-30 2 -69 2h-344q-30 0 -63 -2z" />
<glyph unicode="M" horiz-adv-x="893" d="M-2 -2l16 72l62 -2l123 531l-73 -2l17 72q45 -2 64 -2h76q27 0 56 2l82 -511l314 511q20 -2 50 -2h92q25 0 59 2l-16 -72l-59 2l-122 -531l68 2l-16 -72q-34 2 -68 2h-92q-29 0 -61 -2l16 72l61 -2l120 523l-368 -591h-34l-100 591l-120 -523l73 2l-17 -72q-33 2 -65 2 h-76q-30 0 -62 -2z" />
<glyph unicode="N" horiz-adv-x="730" d="M-2 -2l16 72l62 -2l123 531l-73 -2l17 72q45 -2 65 -2h82q19 0 36 2l191 -556l112 486l-72 -2l16 72q46 -2 65 -2h80q17 0 64 2l-16 -72l-61 2l-139 -599h-90l-204 586l-120 -518l68 2l-17 -72q-34 2 -67 2h-76q-30 0 -62 -2z" />
<glyph unicode="O" horiz-adv-x="734" d="M54 261q0 73 27 147t75 132q115 139 291 139q128 0 204 -75t76 -200q0 -100 -41.5 -191t-112.5 -147q-97 -77 -234 -77q-130 0 -207.5 74t-77.5 198zM147 252q0 -84 56.5 -137.5t144.5 -53.5q112 0 185 84q101 115 101 268q0 84 -54.5 139t-137.5 55q-136 0 -221 -121 q-74 -106 -74 -234z" />
<glyph unicode="P" horiz-adv-x="552" d="M2 -2l16 72l58 -2l123 531l-67 -2l16 72q47 -2 66 -2h92q96 0 134.5 -7t69.5 -29q71 -51 71 -147q0 -75 -39.5 -128.5t-107.5 -73.5q-45 -12 -183 -12h-36l-47 -202l74 2l-17 -72q-37 2 -73 2h-92q-28 0 -58 -2zM231 339l29 1h77q71 0 111 38t40 106q0 67 -42 93 q-19 12 -44.5 16t-89.5 4h-22z" />
<glyph unicode="Q" horiz-adv-x="733" d="M122 70q-32 32 -51.5 83.5t-19.5 106.5q0 74 30 151.5t80 135.5q55 63 129.5 97t156.5 34q128 0 203 -74t75 -199q0 -102 -46.5 -195t-126.5 -149t-194 -65q33 -11 54 -21q47 -24 69 -30.5t51 -6.5q8 0 47 3l-34 -67q-24 -2 -27 -2q-52 0 -135 42q-71 36 -112 36 q-47 0 -103 -41l-29 55q43 31 115 39q-82 18 -132 67zM144 254q0 -85 54 -139t137 -54q57 0 112.5 26t93.5 71q43 49 67 115t24 131q0 90 -51.5 146t-134.5 56q-129 0 -219 -113q-39 -49 -61 -112.5t-22 -126.5z" />
<glyph unicode="R" horiz-adv-x="615" d="M-1 -2l16 72l61 -2l123 531l-72 -2l16 72q45 -2 65 -2h99l52 1h35q102 0 150 -48q45 -44 45 -115q0 -47 -18.5 -86t-51.5 -61q-31 -21 -88 -32l59 -258l81 2l-16 -72q-28 2 -62 2h-46q-15 0 -28 -2l-73 320h-15h-45h-42h-18l-58 -250l72 2l-16 -72q-36 2 -71 2h-92 q-30 0 -62 -2zM241 382l72 -1q58 -1 86 4.5t51 20.5q46 31 46 99q0 49 -26 72q-28 23 -125 22l-54 -1z" />
<glyph unicode="S" horiz-adv-x="498" d="M-3 0q8 33 24 104q12 57 22 93h69l-15 -65q58 -71 126 -71q52 0 87.5 33t35.5 80q0 37 -21.5 67t-83.5 78q-73 56 -101.5 96.5t-28.5 89.5q0 72 56.5 122.5t137.5 50.5q77 0 143 -57l11 46h69q-18 -70 -42 -184h-70l16 68q-57 55 -120 55q-48 0 -78 -26t-30 -67t33 -75 q8 -9 84 -68q65 -51 91.5 -93.5t26.5 -95.5q0 -85 -57 -138.5t-147 -53.5q-94 0 -156 65l-12 -54h-70z" />
<glyph unicode="T" horiz-adv-x="579" d="M128 -2l16 72l62 -2l122 530h-148l-41 -178h-71l7 26l50 223q30 -2 63 -2h389q38 0 77 2q-15 -55 -57 -249h-72l41 178h-146l-122 -530l72 2l-16 -72q-34 2 -66 2h-98q-30 0 -62 -2z" />
<glyph unicode="U" horiz-adv-x="670" d="M96 164q0 33 11 80l82 355l-71 -2l17 72q44 -2 64 -2h98q18 0 63 2l-17 -72l-62 2l-77 -336q-15 -66 -15 -102q0 -44 35 -72t91 -28q41 0 76 17.5t54 48.5q34 51 65 186l66 286l-71 -2l16 72q45 -2 65 -2h79q19 0 64 2l-16 -72l-63 2l-74 -318q-24 -103 -43 -148.5 t-52 -78.5q-63 -65 -183 -65q-89 0 -145.5 49t-56.5 126z" />
<glyph unicode="V" horiz-adv-x="635" d="M199 -6l-49 605l-78 -2l16 72q28 -2 59 -2h84q47 0 87 2l-17 -72l-64 2l34 -484l306 484l-82 -2l17 72q39 -2 96 -2h70q36 0 66 2l-17 -72l-64 2l-385 -605h-79z" />
<glyph unicode="W" horiz-adv-x="927" d="M181 -6l-27 605l-82 -2l16 72q36 -2 69 -2h80q50 0 91 2l-17 -72l-72 2l17 -467l251 467l-74 -2l16 72q35 -2 73 -2h78q27 0 86 2l-16 -72l-64 2l11 -467l259 467l-68 -2l16 72q31 -2 67 -2h82q18 0 63 2l-16 -72l-62 2l-337 -605h-76l-14 510l-275 -510h-75z" />
<glyph unicode="X" horiz-adv-x="631" d="M24 0q-15 0 -57 -2l16 72l56 -2l255 280l-106 251l-71 -2l16 72q26 -2 45 -2h89q27 0 86 2l-16 -72l-53 2l80 -194l175 194l-64 -2l17 72q38 -2 81 -2h79q14 0 57 2l-16 -72l-57 2l-239 -266l112 -265l62 2l-17 -72q-24 2 -43 2h-83q-46 0 -91 -2l16 72l58 -2l-86 207 l-186 -207l57 2l-16 -72q-35 2 -70 2h-86z" />
<glyph unicode="Y" horiz-adv-x="572" d="M126 -2l17 72l61 -2l53 228l-119 303l-66 -2l16 72q27 -2 49 -2h74q33 0 102 2l-16 -72l-67 2l89 -236l199 236l-75 -2l16 72q40 -2 91 -2h75q28 0 56 2l-16 -72l-55 2l-264 -316l-50 -215l70 2l-16 -72q-35 2 -69 2h-92q-31 0 -63 -2z" />
<glyph unicode="Z" horiz-adv-x="548" d="M-22 -2l16 71l466 529h-264l-33 -143h-66q10 38 25 107l24 107q32 -2 66 -2h272q37 0 113 2l-15 -64l-469 -536h288l34 148h70q-23 -85 -50 -219q-25 2 -70 2h-312q-48 0 -95 -2z" />
<glyph unicode="[" horiz-adv-x="326" d="M57 -125h143l-15 -62h-216l197 854h209l-14 -62h-135z" />
<glyph unicode="\" horiz-adv-x="421" d="M279 -187l-135 854h66l136 -854h-67z" />
<glyph unicode="]" horiz-adv-x="326" d="M-33 -125h135l169 730h-143l15 62h216l-197 -854h-209z" />
<glyph unicode="^" d="M-26 284l279 416h7l266 -416h-43l-194 300l-201 -300h-114z" />
<glyph unicode="_" d="M0 -89h500v-49h-500v49z" />
<glyph unicode="`" d="M315 530l-105 140h93l72 -140h-60z" />
<glyph unicode="a" horiz-adv-x="509" d="M19 129q0 68 52.5 110.5t136.5 42.5q63 0 140 -26l14 59q4 15 4 30q0 26 -23.5 43.5t-60.5 17.5q-75 0 -141 -61l-50 41q84 90 196 90q74 0 118 -33.5t44 -90.5q0 -18 -5 -43l-57 -246l64 1l-15 -65q-31 1 -64 1h-46q-16 0 -37 -1l10 44q-68 -53 -140 -53q-59 0 -99.5 40 t-40.5 99zM104 132q0 -32 21.5 -52t56.5 -20q56 0 134 55l19 84q-57 18 -117 18q-51 0 -82.5 -23.5t-31.5 -61.5z" />
<glyph unicode="b" horiz-adv-x="580" d="M-20 -1l15 65l58 -1l125 543l-66 -2l15 64q45 -1 65 -1h48q10 0 36 1l-59 -254q70 62 151 62q82 0 132.5 -53t50.5 -140q0 -61 -24 -121t-66 -103q-66 -69 -161 -69q-102 0 -162 81l-17 -72q-18 1 -38 1h-45q-29 0 -58 -1zM174 175q0 -49 32.5 -82.5t79.5 -33.5 q63 0 112 52q68 73 68 168q0 56 -32 91.5t-83 35.5q-73 0 -125 -68t-52 -163z" />
<glyph unicode="c" horiz-adv-x="490" d="M31 198q0 113 74.5 195.5t176.5 82.5q90 0 139 -66l13 56h67q-28 -105 -37 -157h-66q-4 45 -33.5 71t-77.5 26q-75 0 -122 -67q-49 -70 -49 -151q0 -55 32.5 -91.5t81.5 -36.5q82 0 142 84l55 -36q-81 -118 -202 -118q-86 0 -140 58t-54 150z" />
<glyph unicode="d" horiz-adv-x="580" d="M29 191q0 115 78 200t182 85q105 0 152 -78l48 208l-71 -2l15 64q44 -1 64 -1h50q12 0 40 1l-140 -605l64 1l-15 -65q-31 1 -64 1h-44q-17 0 -39 -1l11 51q-72 -60 -151 -60t-129.5 56.5t-50.5 144.5zM114 188q0 -58 31.5 -93t83.5 -35q85 0 135 78q46 71 46 152 q0 52 -31 84t-81 32q-73 0 -128.5 -65.5t-55.5 -152.5z" />
<glyph unicode="e" horiz-adv-x="516" d="M31 194q0 117 74.5 199.5t180.5 82.5q89 0 143 -60.5t54 -159.5q0 -14 -3 -43h-368q-1 -12 -1 -27q0 -58 33.5 -92t89.5 -34q74 0 143 68l65 -31q-76 -107 -207 -107q-95 0 -149.5 55t-54.5 149zM125 270h277q-1 63 -33 99.5t-86 36.5q-68 0 -119 -61q-25 -31 -39 -75z " />
<glyph unicode="f" horiz-adv-x="303" d="M-18 -1l15 65l60 -1l79 342l-70 -2l15 65l70 -2q25 97 40 128q43 83 127 83q47 0 93 -26l-25 -61q-34 17 -58 17q-35 0 -56 -31.5t-38 -109.5l65 2l-15 -65l-64 2l-79 -342l65 1l-15 -65q-32 1 -65 1h-83q-30 0 -61 -1z" />
<glyph unicode="g" horiz-adv-x="574" d="M16 -75q78 -63 163 -63q146 0 185 185q-46 -31 -75.5 -42t-65.5 -11q-86 0 -140 55t-54 143q0 116 76 200t182 84q90 0 160 -73l15 64q23 -1 34 -1h43q18 0 64 1l-15 -64l-63 2l-77 -333q-22 -94 -44.5 -143.5t-57.5 -78.5q-71 -58 -167 -58q-117 0 -205 76zM114 192 q0 -54 34 -91t83 -37q69 0 125 58q27 29 44.5 78t17.5 95q0 51 -32.5 81t-87.5 30q-81 0 -131 -67q-53 -67 -53 -147z" />
<glyph unicode="h" horiz-adv-x="553" d="M-20 -2l15 66l58 -1l125 543l-66 -2l15 64q45 -1 65 -1h50q8 0 16 1h18l-59 -255q80 63 159 63q54 0 87.5 -29.5t33.5 -76.5q0 -24 -9 -61l-57 -245h66l-15 -64q-11 -1 -22 -1l-44 1h-43l-28 -1q-6 0 -12 1l71 306q9 41 9 51q0 21 -18 35t-44 14q-69 0 -155 -83l-60 -260 l68 1l-15 -66q-55 2 -67 2h-84q-12 0 -58 -2z" />
<glyph unicode="i" horiz-adv-x="276" d="M211 573q-23 0 -40 17t-17 40q0 24 16.5 40.5t40.5 16.5q23 0 40 -17t17 -40t-17 -40t-40 -17zM-16 -1l15 65l59 -1l79 342l-67 -2l15 64q50 -1 66 -1h47q7 0 37 1l-94 -404l68 1l-15 -65q-45 1 -67 1h-83q-18 0 -60 -1z" />
<glyph unicode="j" horiz-adv-x="253" d="M206 573q-23 0 -40 17t-17 40q0 24 16.5 40.5t40.5 16.5q23 0 40 -17t17 -40t-17 -40t-40 -17zM47 31l86 374l-67 -2l15 64q46 -1 66 -1h54q8 0 30 1l-108 -469q-27 -118 -67 -162q-44 -47 -116 -47q-26 0 -61 8l16 70q25 -8 41 -8q43 0 65 34.5t46 137.5z" />
<glyph unicode="k" horiz-adv-x="536" d="M-18 -1l15 65l56 -1l126 543l-67 -2l15 64q45 -1 66 -1h47q10 0 20 1h17l-95 -411l203 148l-70 -2l15 64q54 -1 94 -1h77q15 0 53 1l-15 -64l-52 2l-225 -161l127 -181l81 1l-15 -65q-20 1 -35 1h-39q-19 0 -43 -1l-162 232l-39 -168l69 1l-15 -65q-34 1 -69 1h-83 q-28 0 -57 -1z" />
<glyph unicode="l" horiz-adv-x="270" d="M-18 -1l15 65l56 -1l126 543l-66 -2l15 64q45 -1 65 -1h47q16 0 37 1l-140 -605l69 1l-15 -65q-34 1 -69 1h-83q-28 0 -57 -1z" />
<glyph unicode="m" horiz-adv-x="865" d="M-14 -1l15 65l57 -1l79 342l-66 -2l15 64q45 -1 65 -1h48q19 0 36 1l-15 -64q88 73 171 73q85 0 109 -84q98 84 187 84q53 0 87 -29t34 -75q0 -28 -10 -71l-55 -238l67 1l-15 -65q-45 1 -66 1h-30q-1 0 -10 -0.5t-17 -0.5h-27l69 297q9 36 9 55q0 25 -17.5 40t-46.5 15 q-81 0 -155 -83l-60 -260l65 1l-15 -65q-32 1 -64 1h-33q-28 0 -51 -1l70 305q7 33 7 50q0 23 -17.5 37.5t-46.5 14.5q-83 0 -157 -83l-61 -260l68 1l-15 -65q-33 1 -67 1h-83q-29 0 -58 -1z" />
<glyph unicode="n" horiz-adv-x="555" d="M-16 -1l15 65l59 -1l79 342l-68 -2l15 64q50 -1 67 -1h42q10 0 42 1l-14 -59q78 68 165 68q46 0 78 -29t32 -71q0 -33 -14 -98l-49 -215l67 1l-15 -65q-45 1 -58 1h-39q-13 0 -53 -1l68 295q9 39 9 64q0 21 -18.5 34.5t-46.5 13.5q-77 0 -146 -86l-60 -257l69 1l-15 -65 q-46 1 -68 1h-83q-18 0 -60 -1z" />
<glyph unicode="o" horiz-adv-x="529" d="M29 189q0 119 80.5 203t195.5 84q86 0 140 -54t54 -141q0 -68 -28.5 -131.5t-75.5 -101.5q-71 -58 -167 -58q-91 0 -145 54t-54 145zM114 186q0 -57 33 -91.5t87 -34.5q67 0 113 51q67 73 67 173q0 55 -31 88.5t-82 33.5q-76 0 -131.5 -65t-55.5 -155z" />
<glyph unicode="p" horiz-adv-x="567" d="M130 63l-48 -209l69 1l-15 -65q-21 1 -68 1h-84q-40 0 -58 -1l15 65l58 -1l127 551l-67 -2l15 64q46 -1 66 -1h46q8 0 33 1l-12 -51q66 60 151 60q80 0 130.5 -54.5t50.5 -142.5q0 -122 -74 -205.5t-181 -83.5q-88 0 -154 73zM160 168q0 -47 32.5 -77.5t82.5 -30.5 q94 0 148 96q32 58 32 119q0 58 -32.5 95t-82.5 37q-66 0 -117 -56q-26 -30 -44.5 -83t-18.5 -100z" />
<glyph unicode="q" horiz-adv-x="582" d="M29 190q0 115 77 200.5t180 85.5q98 0 161 -80l17 71h13q7 -1 16 -1h50q18 0 61 1l-15 -64l-56 2l-128 -551l67 1l-15 -65q-19 1 -63 1h-86q-43 0 -62 -1l15 65l61 -1l45 196q-70 -60 -151 -60q-83 0 -135 55.5t-52 144.5zM114 185q0 -53 33.5 -89t82.5 -36q37 0 72.5 20 t60.5 54q23 32 38.5 79t15.5 85q0 47 -33 77.5t-85 30.5q-66 0 -114 -47q-32 -31 -51.5 -78t-19.5 -96z" />
<glyph unicode="r" horiz-adv-x="388" d="M-15 -1l15 65l58 -1l79 342l-67 -2l15 64q46 -1 66 -1h50q10 0 34 1l-27 -115q73 115 183 115q11 0 20 -1l-16 -71h-16q-75 0 -129.5 -49.5t-73.5 -131.5l-35 -151l70 1l-15 -65q-34 1 -69 1h-84q-29 0 -58 -1z" />
<glyph unicode="s" horiz-adv-x="437" d="M-4 0q11 37 33 144h58q2 -40 31.5 -62t79.5 -22q44 0 70 17.5t26 47.5q0 33 -33 57q-12 9 -73 36q-121 56 -121 132q0 55 46 90.5t118 35.5q80 0 132 -50l9 40h65q-9 -28 -32 -138h-65q0 36 -28 57t-76 21q-37 0 -60.5 -15.5t-23.5 -38.5q0 -18 11 -27q14 -13 96 -52 q62 -30 91 -64t29 -77q0 -63 -54 -106q-46 -36 -121 -36q-77 0 -132 49l-9 -39h-67z" />
<glyph unicode="t" horiz-adv-x="295" d="M49 72q0 23 11 71l61 262l-71 -2l14 65l71 -2l26 114l100 73l-43 -187l74 2l-15 -65l-73 2l-58 -253q-12 -52 -12 -64q0 -11 9.5 -19.5t22.5 -8.5q26 0 83 23l-16 -70q-48 -23 -91 -23t-68 22t-25 60z" />
<glyph unicode="u" horiz-adv-x="552" d="M58 109q0 25 6 49l57 247l-67 -2l15 64q46 -1 66 -1h54q8 0 30 1l-67 -287q-8 -37 -8 -61q0 -59 65 -59q67 0 147 83l60 262l-71 -2l14 64q45 -1 65 -1h53l22 1q8 0 15 -1l-93 -403l63 1l-15 -65q-31 1 -63 1h-51q-6 0 -32 -1l13 59q-88 -68 -162 -68q-51 0 -83.5 33.5 t-32.5 85.5z" />
<glyph unicode="v" horiz-adv-x="481" d="M128 -10l-33 415l-57 -2l15 64q29 -1 41 -1h74q29 0 77 1l-15 -64l-56 2l18 -307l199 307l-66 -2l15 64q34 -1 79 -1h65q14 0 50 1l-15 -64l-48 2l-272 -415h-71z" />
<glyph unicode="w" horiz-adv-x="739" d="M121 -10l-30 415l-53 -2l15 64q19 -1 38 -1h66q19 0 80 1l-15 -64l-56 2l16 -314l173 314l-49 -2l15 64q23 -1 58 -1h86q20 0 62 1l-14 -64l-48 2l17 -314l180 314l-59 -2l15 64q29 -1 63 -1h61q15 0 49 1l-14 -64l-38 2l-244 -415h-78l-15 363l-203 -363h-78z" />
<glyph unicode="x" horiz-adv-x="487" d="M4 0q-21 0 -46 -1l15 65l50 -1l176 173l-85 169l-57 -2l15 64q18 -1 33 -1h67h14q15 1 28 1h50l-15 -64l-47 2l56 -108l112 108l-51 -2l15 64q52 -1 85 -1h58q14 0 44 1l-15 -64l-48 2l-172 -169l93 -173l55 1l-15 -65h-19q-9 1 -19 1h-70q-47 0 -80 -1l15 65l45 -1 l-61 113l-116 -113l50 1l-15 -65q-13 1 -59 1h-86z" />
<glyph unicode="y" horiz-adv-x="483" d="M143 -4l-45 409l-60 -2l15 64q18 -1 44 -1h76q48 0 79 1l-15 -64l-61 2l29 -318l183 318l-64 -2l15 64q22 -1 70 -1h72q36 0 56 1l-15 -64l-54 2l-373 -615q-11 1 -35 1h-60q-23 0 -36 -1l15 65l76 -2z" />
<glyph unicode="z" horiz-adv-x="430" d="M-23 -1l15 65l342 339h-184l-20 -85h-64q11 37 34 149q24 -1 64 -1h205q27 0 76 1l-15 -64l-344 -344h202l20 90h63q-14 -51 -35 -150q-20 1 -53 1h-243q-33 0 -63 -1z" />
<glyph unicode="{" horiz-adv-x="333" d="M60 -53l38 164q5 25 5 37q0 41 -41 54l14 61q33 9 51 30t27 61l38 164q18 76 45 107q36 42 105 42h49l-13 -60q-55 -1 -78.5 -20.5t-36.5 -74.5l-37 -163q-11 -48 -31.5 -75t-56.5 -41q23 -13 31.5 -28t8.5 -41q0 -22 -6 -48l-38 -163q-6 -30 -6 -47q0 -48 71 -48h6 l-14 -60h-50q-40 0 -67 19q-23 16 -23 61q0 33 9 69z" />
<glyph unicode="|" d="M219 -167v834h63v-834h-63z" />
<glyph unicode="}" horiz-adv-x="333" d="M84 -47l38 163q11 49 31 75.5t56 41.5q-23 12 -31.5 27t-8.5 41q0 15 7 48l37 163q7 30 7 47q0 48 -71 48h-6l14 60h49q41 0 68 -19q23 -16 23 -61q0 -30 -9 -69l-38 -164q-6 -27 -6 -37q0 -41 42 -54l-15 -61q-33 -9 -50.5 -29.5t-26.5 -61.5l-38 -164q-18 -74 -46 -107 q-36 -42 -105 -42h-49l14 60q54 1 77.5 20.5t36.5 74.5z" />
<glyph unicode="~" horiz-adv-x="667" d="M142 611l-16 10q58 100 137 100q25 0 88 -21q53 -19 79 -19q53 0 95 53l16 -10q-24 -44 -61.5 -71.5t-74.5 -27.5q-21 0 -89 23q-58 19 -86 19q-26 0 -42 -10t-46 -46z" />
<glyph unicode="&#xa1;" horiz-adv-x="230" d="M96 349l27 117h90l-27 -117h-90zM0 -86l98 360h50l-63 -360l-26 -114h-85z" />
<glyph unicode="&#xa2;" d="M166 -7l25 109q-63 21 -97 71.5t-34 123.5q0 74 32 139.5t87 103.5q54 38 123 41l19 86h67l-22 -96q58 -13 82 -53l13 53h67q-12 -42 -36 -155h-67q-4 29 -14 45q-13 22 -41 36.5t-58 14.5q-67 0 -118 -65t-51 -151q0 -55 34 -94t82 -39q37 0 68.5 20t71.5 69l58 -37 q-74 -115 -202 -121l-23 -101h-66z" />
<glyph unicode="&#xa3;" d="M11 71q0 41 28.5 70.5t67.5 29.5q34 0 65 -23q17 54 17 111q0 17 -1 33h-120l15 67h99q-10 52 -10 106q0 93 52 153t132 60q65 0 105.5 -39t40.5 -101q0 -18 -6 -43h-78q5 23 5 36q0 35 -18 56t-49 21q-47 0 -73.5 -40.5t-26.5 -111.5q0 -46 6 -97h125l-15 -67h-109v-24 q0 -77 -37 -163q35 -46 71 -46q20 0 40 12.5t32 31.5q12 21 23 60h68q-10 -70 -60 -122t-106 -52q-54 0 -105 55q-46 -55 -101 -55q-32 0 -54.5 24t-22.5 58zM64 76q0 -15 10 -25t24 -10q35 0 53 44l-3 3l-1 2q-22 27 -49 27q-13 0 -23.5 -12.5t-10.5 -28.5z" />
<glyph unicode="&#xa4;" d="M144 149l-52 52l56 56l-5 10q-2 4 -5 10.5t-4.5 9t-3.5 7.5t-2.5 6.5t-2 5.5t-2 6t-1 6t-0.5 7.5v7.5q0 20 3.5 30t17.5 37l5 10l-56 56l52 52l56 -56l10 5q27 14 37 17t29 3q20 0 30 -3t37 -17l10 -5l56 56l52 -52l-56 -56l5 -10q14 -27 17 -37t3 -30q0 -19 -3 -29 t-17 -37l-5 -10l56 -56l-52 -52l-56 56q-45 -26 -77 -26q-34 0 -76 26zM276 230q43 0 73 30.5t30 72.5q0 43 -30 73t-73 30q-42 0 -72.5 -30t-30.5 -72q0 -43 30 -73.5t73 -30.5z" />
<glyph unicode="&#xa5;" d="M95 -2l14 63l62 -2l46 198h-163l13 58h154l-21 74h-116l14 58h86l-46 161l-51 -2l14 63q30 -2 45 -2h61q31 0 99 2l-14 -63l-71 2l60 -255l180 255l-79 -2l14 63q38 -2 88 -2h62q19 0 52 2l-14 -63l-40 2l-117 -161h81l-14 -58h-110l-54 -74h147l-13 -58h-163l-46 -198 l71 2l-14 -63q-33 2 -66 2h-93q-29 0 -58 -2z" />
<glyph unicode="&#xa6;" d="M219 328v339h63v-339h-63zM219 153h63v-320h-63v320z" />
<glyph unicode="&#xa7;" d="M8 -20h67l2 -9l2 -21q4 -42 32 -66t71 -24q49 0 82.5 27t33.5 67q0 30 -19 57.5t-68 66.5l-83 67q-45 36 -63 65t-18 66q0 65 51 108q23 19 67 33q-38 49 -38 99q0 69 53.5 115.5t132.5 46.5q55 0 98 -26t64 -71q21 -43 21 -81h-71l-2 8l-6 19q-13 40 -42 63t-66 23 q-43 0 -75 -27.5t-32 -65.5q0 -24 15 -45t54 -51l103 -79q82 -62 82 -127q0 -105 -122 -147q42 -52 42 -112q0 -70 -53 -116t-134 -46q-86 0 -133.5 45t-47.5 126v12zM194 190l91 -72q43 5 69 29t26 58q0 21 -12.5 39t-43.5 42l-111 85q-40 -6 -66 -30.5t-26 -55.5 q0 -37 73 -95z" />
<glyph unicode="&#xa8;" d="M401 544q-21 0 -36.5 15.5t-15.5 36.5q0 22 15 37.5t37 15.5t37.5 -15.5t15.5 -37.5q0 -21 -15.5 -36.5t-37.5 -15.5zM233 544q-21 0 -36.5 15.5t-15.5 36.5q0 22 15 37.5t37 15.5t37.5 -15.5t15.5 -37.5q0 -21 -15.5 -36.5t-37.5 -15.5z" />
<glyph unicode="&#xa9;" horiz-adv-x="763" d="M58 333q0 146 102.5 247.5t250.5 101.5q140 0 241.5 -103t101.5 -246q0 -144 -102 -246t-246 -102q-143 0 -245.5 102.5t-102.5 245.5zM101 333q0 -127 90 -218t215 -91q126 0 215.5 91t89.5 219q0 126 -89 217.5t-212 91.5q-130 0 -219.5 -90t-89.5 -220zM205 303 q0 92 71 161t166 69q68 0 110 -39l8 33h47q-5 -20 -27 -118h-47q1 4 1 9q0 29 -27 48.5t-67 19.5q-67 0 -120.5 -56t-53.5 -126q0 -51 31 -84t79 -33q81 0 132 80l43 -34q-70 -93 -174 -93q-77 0 -124.5 45t-47.5 118z" />
<glyph unicode="&#xaa;" horiz-adv-x="333" d="M176 394q-37 0 -62.5 23.5t-25.5 57.5q0 40 32.5 64.5t83.5 24.5q36 0 82 -13l6 28q2 12 2 15q0 14 -13.5 23t-35.5 9q-43 0 -83 -34l-35 26q53 54 123 54q47 0 74 -20t27 -54q0 -12 -3 -22l-31 -134l39 1l-10 -44q-29 1 -42 1h-28q-13 0 -25 -1l3 20q-40 -25 -78 -25z M190 440q33 0 77 29l9 43q-30 9 -66 9q-29 0 -46.5 -11.5t-17.5 -31.5q0 -17 12 -27.5t32 -10.5zM14 297l8 33h333l-8 -33h-333z" />
<glyph unicode="&#xab;" horiz-adv-x="486" d="M302 11l-95 254l201 201h88l-214 -216l94 -239h-74zM155 11l-102 268l184 187h89l-198 -202l101 -253h-74z" />
<glyph unicode="&#xac;" d="M34 220v47h431v-267h-108v220h-323z" />
<glyph unicode="&#xad;" horiz-adv-x="226" d="M-7 206l17 74h226l-17 -74h-226z" />
<glyph unicode="&#xae;" horiz-adv-x="763" d="M57 333q0 146 102.5 247.5t250.5 101.5q140 0 241.5 -103t101.5 -246q0 -144 -102 -246t-246 -102q-143 0 -245.5 102.5t-102.5 245.5zM100 333q0 -127 90 -218t215 -91q126 0 215.5 91t89.5 219q0 126 -89 217.5t-212 91.5q-130 0 -219.5 -90t-89.5 -220zM231 146l11 47 l36 -1l67 290l-42 -1l11 47q30 -1 40 -1h58q71 0 89.5 -2.5t36.5 -14.5q41 -27 41 -78q0 -85 -90 -102l34 -138l48 1l-10 -47q-18 1 -40 1h-26q-10 0 -19 -1l-44 179h-35h-29l-30 -133l41 1l-11 -47q-22 1 -44 1h-53q-19 0 -40 -1zM378 367h38q56 0 78 13q24 16 24 51 q0 31 -18 41q-12 6 -26 7.5t-69 1.5z" />
<glyph unicode="&#xaf;" d="M166 563l14 61h280l-14 -61h-280z" />
<glyph unicode="&#xb0;" horiz-adv-x="327" d="M235 410q-56 0 -95 39.5t-39 95.5q0 55 39.5 93.5t96.5 38.5q53 0 92 -39.5t39 -93.5q0 -55 -39 -94.5t-94 -39.5zM235 467q31 0 53.5 22.5t22.5 54.5q0 31 -22 53.5t-53 22.5q-32 0 -55 -22.5t-23 -53.5q0 -32 22.5 -54.5t54.5 -22.5z" />
<glyph unicode="&#xb1;" d="M201 190l32 142h-138l16 70h138l33 141h76l-33 -141h139l-16 -70h-139l-33 -142h-75zM33 65l16 70h353l-16 -70h-353z" />
<glyph unicode="&#xb2;" horiz-adv-x="332" d="M63 265q2 63 30 103.5t104 91.5q59 39 79.5 63.5t20.5 53.5q0 20 -14.5 34t-36.5 14q-42 0 -67 -44q-11 -20 -21 -68h-54q11 67 36 102q43 58 110 58q46 0 76 -26.5t30 -67.5q0 -40 -23.5 -71t-86.5 -74q-76 -52 -95.5 -71t-26.5 -49h130l22 93h51q-12 -48 -33 -142 q-20 1 -48 1h-136q-22 0 -47 -1z" />
<glyph unicode="&#xb3;" horiz-adv-x="332" d="M189 260q-56 0 -89.5 32.5t-33.5 87.5q0 12 2 24h55q0 -6 -1 -14t-1 -11q0 -31 19 -51t49 -20q34 0 58 23.5t24 55.5q0 34 -24 49.5t-77 15.5l11 48q8 -1 20 -1q42 0 69 21t27 54q0 23 -14.5 37.5t-37.5 14.5q-59 0 -75 -75h-56q11 58 46.5 90.5t88.5 32.5 q46 0 76.5 -28.5t30.5 -71.5q0 -75 -80 -102q25 -10 39.5 -33t14.5 -51q0 -53 -41 -90.5t-100 -37.5z" />
<glyph unicode="&#xb4;" d="M241 530l100 140h96l-133 -140h-63z" />
<glyph unicode="&#xb5;" horiz-adv-x="552" d="M99 16l-22 -162h-83l142 613h83l-66 -287q-8 -35 -8 -61q0 -59 65 -59q68 0 146 83l75 323h83l-93 -403l64 1l-16 -65q-31 1 -63 1h-51q-6 0 -32 -1l14 59q-88 -68 -162 -68q-43 0 -76 26z" />
<glyph unicode="&#xb6;" d="M48 -139l81 -2l105 455q-74 0 -112 26q-53 34 -53 107q0 46 24 93t64 78q65 50 176 50l174 -1q27 0 55 1l52 1l-17 -71l-84 1l-171 -740l85 2l-16 -72q-30 2 -82 2h-54l187 808h-111l-186 -808h-52q-43 0 -82 -2z" />
<glyph unicode="&#xb7;" horiz-adv-x="215" d="M51 185l27 117h89l-27 -117h-89z" />
<glyph unicode="&#xb8;" d="M147 -50h85l-14 -63q-22 -100 -108 -100l9 41q20 2 34.5 15.5t17.5 32.5h-41z" />
<glyph unicode="&#xb9;" horiz-adv-x="332" d="M95 266l11 49l52 -1l70 306l-56 -1l11 49q20 -1 55 -1h24q9 0 16 1h21l-82 -354l53 1l-11 -49q-23 1 -56 1h-53q-28 0 -55 -1z" />
<glyph unicode="&#xba;" horiz-adv-x="333" d="M216 395q-56 0 -90 31.5t-34 84.5q0 67 48.5 114t118.5 47q54 0 87.5 -31.5t33.5 -82.5q0 -70 -47 -116.5t-117 -46.5zM221 441q41 0 71 34.5t30 83.5q0 30 -18.5 48.5t-47.5 18.5q-44 0 -75 -34t-31 -82q0 -31 19.5 -50t51.5 -19zM14 297l8 33h333l-8 -33h-333z" />
<glyph unicode="&#xbb;" horiz-adv-x="486" d="M160 11l198 202l-100 253h73l103 -268l-185 -187h-89zM-9 11l214 216l-95 239h74l96 -254l-201 -201h-88z" />
<glyph unicode="&#xbc;" horiz-adv-x="812" d="M155 20l514 653l33 -25l-514 -654zM95 266l11 49l52 -1l70 306l-56 -1l11 49q20 -1 55 -1h24q9 0 16 1h21l-82 -354l53 1l-11 -49q-23 1 -56 1h-53q-28 0 -55 -1zM482 154l228 253h58l-58 -249h58l-11 -46h-57l-15 -65l45 1l-11 -49q-25 1 -50 1h-51q-23 0 -46 -1l11 49 l43 -1l15 65h-143q-4 22 -16 42zM542 158h109l38 162z" />
<glyph unicode="&#xbd;" horiz-adv-x="812" d="M155 20l514 653l33 -25l-514 -654zM95 266l11 49l52 -1l70 306l-56 -1l11 49q20 -1 55 -1h24q9 0 16 1h21l-82 -354l53 1l-11 -49q-23 1 -56 1h-53q-28 0 -55 -1zM482 -1q3 63 31 103.5t104 91.5q59 39 79.5 63.5t20.5 53.5q0 20 -15 34t-37 14q-43 0 -67 -44 q-11 -20 -21 -68h-54q11 68 37 102q43 58 110 58q46 0 76 -26.5t30 -67.5q0 -39 -24 -70.5t-87 -74.5q-75 -51 -95 -71t-27 -49h130l22 93h51q-12 -48 -33 -142q-20 1 -48 1h-136q-21 0 -47 -1z" />
<glyph unicode="&#xbe;" horiz-adv-x="813" d="M189 260q-56 0 -89.5 32.5t-33.5 87.5q0 12 2 24h55q0 -6 -1 -14t-1 -11q0 -31 19 -51t49 -20q34 0 58 23.5t24 55.5q0 34 -24 49.5t-77 15.5l11 48q8 -1 20 -1q42 0 69 21t27 54q0 23 -14.5 37.5t-37.5 14.5q-59 0 -75 -75h-56q11 58 46.5 90.5t88.5 32.5 q46 0 76.5 -28.5t30.5 -71.5q0 -75 -80 -102q25 -10 39.5 -33t14.5 -51q0 -53 -41 -90.5t-100 -37.5zM155 20l514 653l33 -25l-514 -654zM483 154l228 253h57l-57 -249h57l-11 -46h-57l-15 -65l45 1l-11 -49q-25 1 -50 1h-50q-24 0 -47 -1l12 49l42 -1l15 65h-143 q-2 19 -15 42zM543 158h109l37 162z" />
<glyph unicode="&#xbf;" horiz-adv-x="440" d="M219 349l27 117h89l-27 -117h-89zM-29 -49q0 79 55 140q59 63 155 63h11l28 125h58l-33 -198q-29 8 -53 8q-60 0 -96 -39q-43 -45 -43 -102q0 -40 25.5 -66.5t63.5 -26.5q81 0 113 94h79q-19 -75 -72 -118t-124 -43q-75 0 -121 45t-46 118z" />
<glyph unicode="&#xc0;" horiz-adv-x="629" d="M390 727l-93 119h99l55 -119h-61zM20 0q-34 0 -66 -2l16 72l53 -2l287 531l-71 -2l16 72q38 -2 89 -2h106q64 0 100 2l-16 -72l-62 2l63 -531l61 2l-17 -72q-46 2 -61 2h-64q-51 0 -93 -2l17 72l70 -2l-19 172h-229l-92 -172l72 2l-17 -72q-35 2 -77 2h-66zM234 303h188 l-31 299z" />
<glyph unicode="&#xc1;" horiz-adv-x="629" d="M374 727l90 119h103l-126 -119h-67zM20 0q-34 0 -66 -2l16 72l53 -2l287 531l-71 -2l16 72q38 -2 89 -2h106q64 0 100 2l-16 -72l-62 2l63 -531l61 2l-17 -72q-46 2 -61 2h-64q-51 0 -93 -2l17 72l70 -2l-19 172h-229l-92 -172l72 2l-17 -72q-35 2 -77 2h-66zM234 303 h188l-31 299z" />
<glyph unicode="&#xc2;" horiz-adv-x="629" d="M274 727l120 120h105l63 -120h-70l-47 84l-94 -84h-77zM20 0q-34 0 -66 -2l16 72l53 -2l287 531l-71 -2l16 72q38 -2 89 -2h106q64 0 100 2l-16 -72l-62 2l63 -531l61 2l-17 -72q-46 2 -61 2h-64q-51 0 -93 -2l17 72l70 -2l-19 172h-229l-92 -172l72 2l-17 -72 q-35 2 -77 2h-66zM234 303h188l-31 299z" />
<glyph unicode="&#xc3;" horiz-adv-x="629" d="M273 733q26 109 89 109q23 0 93 -35q29 -15 40 -15q32 0 42 48h54q-25 -111 -86 -111q-30 0 -111 41q-22 10 -32 10q-12 0 -21.5 -13t-13.5 -34h-54zM20 0q-34 0 -66 -2l16 72l53 -2l287 531l-71 -2l16 72q38 -2 89 -2h106q64 0 100 2l-16 -72l-62 2l63 -531l61 2 l-17 -72q-46 2 -61 2h-64q-51 0 -93 -2l17 72l70 -2l-19 172h-229l-92 -172l72 2l-17 -72q-35 2 -77 2h-66zM234 303h188l-31 299z" />
<glyph unicode="&#xc4;" horiz-adv-x="629" d="M514 730q-22 0 -38 16t-16 38q0 23 16 39t39 16q22 0 38 -16.5t16 -38.5t-16.5 -38t-38.5 -16zM340 730q-22 0 -38 16t-16 38q0 23 16 39t39 16q22 0 38 -16.5t16 -38.5t-16.5 -38t-38.5 -16zM20 0q-34 0 -66 -2l16 72l53 -2l287 531l-71 -2l16 72q38 -2 89 -2h106 q64 0 100 2l-16 -72l-62 2l63 -531l61 2l-17 -72q-46 2 -61 2h-64q-51 0 -93 -2l17 72l70 -2l-19 172h-229l-92 -172l72 2l-17 -72q-35 2 -77 2h-66zM234 303h188l-31 299z" />
<glyph unicode="&#xc5;" horiz-adv-x="629" d="M421 702q-37 0 -63 26t-26 62q0 37 26.5 63.5t64.5 26.5q36 0 61.5 -26t25.5 -63t-26 -63t-63 -26zM421 752q16 0 27.5 11.5t11.5 27.5t-11.5 27.5t-27.5 11.5q-17 0 -28 -11t-11 -28q0 -16 11.5 -27.5t27.5 -11.5zM20 0q-34 0 -66 -2l16 72l53 -2l287 531l-71 -2l16 72 q38 -2 89 -2h106q64 0 100 2l-16 -72l-62 2l63 -531l61 2l-17 -72q-46 2 -61 2h-64q-51 0 -93 -2l17 72l70 -2l-19 172h-229l-92 -172l72 2l-17 -72q-35 2 -77 2h-66zM234 303h188l-31 299z" />
<glyph unicode="&#xc6;" horiz-adv-x="927" d="M8 0q-33 0 -63 -2l16 71l62 -1l405 531l-87 -1l16 71q49 -2 123 -2h415q41 0 83 2q-25 -87 -51 -219h-82l34 148h-257l-52 -225h220l-17 -69h-219l-54 -235h267l33 146h73q-16 -56 -50 -217q-27 2 -72 2h-359q-28 0 -58 -2l16 71l58 -1l54 236h-172l-178 -236l77 1 l-16 -71q-39 2 -98 2h-67zM341 373h137l53 230h-16z" />
<glyph unicode="&#xc7;" horiz-adv-x="699" d="M59 272q0 143 94 256q57 69 141 109.5t169 40.5q122 0 195 -76l15 65h70q-16 -62 -45 -199h-71q1 6 1 13q0 53 -47.5 89t-118.5 36q-119 0 -214.5 -103t-95.5 -232q0 -92 54 -151t139 -59q67 0 128.5 36.5t103.5 101.5l64 -54q-119 -156 -293 -156q-130 0 -209.5 78 t-79.5 205zM271 -54h91l-15 -67q-11 -49 -41.5 -77t-72.5 -27l10 44q41 5 54 48h-44z" />
<glyph unicode="&#xc8;" horiz-adv-x="594" d="M398 727l-93 119h99l55 -119h-61zM-2 -2l16 71l62 -1l123 531l-72 -1l16 71q46 -2 65 -2h369q35 0 68 2q-32 -111 -49 -215h-82l33 144h-257l-51 -224h218l-16 -69h-218l-55 -236h263l34 148h76q-13 -52 -51 -219q-24 2 -58 2h-372q-30 0 -62 -2z" />
<glyph unicode="&#xc9;" horiz-adv-x="594" d="M382 727l90 119h103l-126 -119h-67zM-2 -2l16 71l62 -1l123 531l-72 -1l16 71q46 -2 65 -2h369q35 0 68 2q-32 -111 -49 -215h-82l33 144h-257l-51 -224h218l-16 -69h-218l-55 -236h263l34 148h76q-13 -52 -51 -219q-24 2 -58 2h-372q-30 0 -62 -2z" />
<glyph unicode="&#xca;" horiz-adv-x="594" d="M285 727l120 120h105l63 -120h-70l-47 84l-94 -84h-77zM-2 -2l16 71l62 -1l123 531l-72 -1l16 71q46 -2 65 -2h369q35 0 68 2q-32 -111 -49 -215h-82l33 144h-257l-51 -224h218l-16 -69h-218l-55 -236h263l34 148h76q-13 -52 -51 -219q-24 2 -58 2h-372q-30 0 -62 -2z " />
<glyph unicode="&#xcb;" horiz-adv-x="594" d="M533 730q-22 0 -38 16t-16 38q0 23 16 39t39 16q22 0 38 -16.5t16 -38.5t-16.5 -38t-38.5 -16zM345 730q-22 0 -38 16t-16 38q0 23 16 39t39 16q22 0 38 -16.5t16 -38.5t-16.5 -38t-38.5 -16zM-2 -2l16 71l62 -1l123 531l-72 -1l16 71q46 -2 65 -2h369q35 0 68 2 q-32 -111 -49 -215h-82l33 144h-257l-51 -224h218l-16 -69h-218l-55 -236h263l34 148h76q-13 -52 -51 -219q-24 2 -58 2h-372q-30 0 -62 -2z" />
<glyph unicode="&#xcc;" horiz-adv-x="323" d="M239 727l-93 119h99l55 -119h-61zM-2 -2l16 72l62 -2l123 531l-73 -2l16 72q43 -2 63 -2h101q18 0 60 2l-16 -72l-59 2l-123 -531l70 2l-16 -72q-31 2 -61 2h-101q-30 0 -62 -2z" />
<glyph unicode="&#xcd;" horiz-adv-x="323" d="M237 727l90 119h103l-126 -119h-67zM-2 -2l16 72l62 -2l123 531l-73 -2l16 72q43 -2 63 -2h101q18 0 60 2l-16 -72l-59 2l-123 -531l70 2l-16 -72q-31 2 -61 2h-101q-30 0 -62 -2z" />
<glyph unicode="&#xce;" horiz-adv-x="323" d="M133 727l110 120h105l53 -120h-70l-37 84l-84 -84h-77zM-2 -2l17 72l61 -2l123 531l-73 -2l16 72q43 -2 63 -2h101q18 0 60 2l-16 -72l-59 2l-123 -531l71 2l-17 -72q-31 2 -61 2h-101q-30 0 -62 -2z" />
<glyph unicode="&#xcf;" horiz-adv-x="323" d="M354 730q-22 0 -38 16t-16 38q0 23 16 39t39 16q22 0 38 -16.5t16 -38.5t-16.5 -38t-38.5 -16zM206 730q-22 0 -38 16t-16 38q0 23 16 39t39 16q22 0 38 -16.5t16 -38.5t-16.5 -38t-38.5 -16zM-2 -2l16 72l62 -2l123 531l-73 -2l16 72q43 -2 63 -2h101q18 0 60 2l-16 -72 l-59 2l-123 -531l70 2l-16 -72q-31 2 -61 2h-101q-30 0 -62 -2z" />
<glyph unicode="&#xd0;" horiz-adv-x="700" d="M-2 -2l16 71l63 -1l57 248h-66l15 67h67l49 216l-72 -2l16 72q47 -2 67 -2h97q107 0 137.5 -2t64.5 -11q82 -23 132.5 -98.5t50.5 -176.5q0 -99 -43 -186t-117 -137q-46 -31 -101.5 -44.5t-139.5 -12.5l-138 1h-92q-30 0 -63 -2zM169 69h103q70 0 111.5 8.5t78.5 31.5 q62 38 99.5 113.5t37.5 160.5q0 128 -85 182q-53 33 -180 33q-25 0 -43 -1l-49 -214h180l-16 -67h-180z" />
<glyph unicode="&#xd1;" horiz-adv-x="730" d="M348 733q26 109 89 109q23 0 93 -35q29 -15 40 -15q32 0 42 48h54q-25 -111 -86 -111q-30 0 -111 41q-22 10 -32 10q-12 0 -21.5 -13t-13.5 -34h-54zM-2 -2l16 72l62 -2l123 531l-73 -2l17 72q45 -2 65 -2h82q19 0 36 2l191 -556l112 486l-72 -2l16 72q46 -2 65 -2h80 q17 0 64 2l-16 -72l-61 2l-139 -599h-90l-204 586l-120 -518l68 2l-17 -72q-34 2 -67 2h-76q-30 0 -62 -2z" />
<glyph unicode="&#xd2;" horiz-adv-x="734" d="M445 727l-93 119h99l55 -119h-61zM54 261q0 73 27 147t75 132q115 139 291 139q128 0 204 -75t76 -200q0 -100 -41.5 -191t-112.5 -147q-97 -77 -234 -77q-130 0 -207.5 74t-77.5 198zM147 252q0 -84 56.5 -137.5t144.5 -53.5q112 0 185 84q101 115 101 268 q0 84 -54.5 139t-137.5 55q-136 0 -221 -121q-74 -106 -74 -234z" />
<glyph unicode="&#xd3;" horiz-adv-x="734" d="M419 727l90 119h103l-126 -119h-67zM54 261q0 73 27 147t75 132q115 139 291 139q128 0 204 -75t76 -200q0 -100 -41.5 -191t-112.5 -147q-97 -77 -234 -77q-130 0 -207.5 74t-77.5 198zM147 252q0 -84 56.5 -137.5t144.5 -53.5q112 0 185 84q101 115 101 268 q0 84 -54.5 139t-137.5 55q-136 0 -221 -121q-74 -106 -74 -234z" />
<glyph unicode="&#xd4;" horiz-adv-x="734" d="M332 727l120 120h105l63 -120h-70l-47 84l-94 -84h-77zM54 261q0 73 27 147t75 132q115 139 291 139q128 0 204 -75t76 -200q0 -100 -41.5 -191t-112.5 -147q-97 -77 -234 -77q-130 0 -207.5 74t-77.5 198zM147 252q0 -84 56.5 -137.5t144.5 -53.5q112 0 185 84 q101 115 101 268q0 84 -54.5 139t-137.5 55q-136 0 -221 -121q-74 -106 -74 -234z" />
<glyph unicode="&#xd5;" horiz-adv-x="734" d="M341 733q26 109 89 109q23 0 93 -35q29 -15 40 -15q32 0 42 48h54q-25 -111 -86 -111q-30 0 -111 41q-22 10 -32 10q-12 0 -21.5 -13t-13.5 -34h-54zM54 261q0 73 27 147t75 132q115 139 291 139q128 0 204 -75t76 -200q0 -100 -41.5 -191t-112.5 -147q-97 -77 -234 -77 q-130 0 -207.5 74t-77.5 198zM147 252q0 -84 56.5 -137.5t144.5 -53.5q112 0 185 84q101 115 101 268q0 84 -54.5 139t-137.5 55q-136 0 -221 -121q-74 -106 -74 -234z" />
<glyph unicode="&#xd6;" horiz-adv-x="734" d="M588 730q-22 0 -38 16t-16 38q0 23 16 39t39 16q22 0 38 -16.5t16 -38.5t-16.5 -38t-38.5 -16zM400 730q-22 0 -38 16t-16 38q0 23 16 39t39 16q22 0 38 -16.5t16 -38.5t-16.5 -38t-38.5 -16zM54 261q0 73 27 147t75 132q115 139 291 139q128 0 204 -75t76 -200 q0 -100 -41.5 -191t-112.5 -147q-97 -77 -234 -77q-130 0 -207.5 74t-77.5 198zM147 252q0 -84 56.5 -137.5t144.5 -53.5q112 0 185 84q101 115 101 268q0 84 -54.5 139t-137.5 55q-136 0 -221 -121q-74 -106 -74 -234z" />
<glyph unicode="&#xd7;" d="M120 179l-40 52l145 118l-88 115l56 46l89 -115l145 118l40 -52l-145 -118l88 -115l-57 -46l-88 115z" />
<glyph unicode="&#xd8;" horiz-adv-x="734" d="M24 6l-34 50l93 75q-30 61 -30 128q0 154 102 281q112 138 289 138q140 0 224 -94l88 70l39 -51l-93 -72q25 -61 25 -128q0 -99 -41.5 -190t-112.5 -147q-97 -77 -234 -77q-140 0 -222 89zM157 188l439 343q-22 34 -64.5 54.5t-91.5 20.5q-64 0 -122 -32t-98 -89 q-74 -105 -74 -231q0 -29 11 -66zM187 132q62 -71 161 -71q112 0 185 84q101 114 101 269q0 27 -8 58z" />
<glyph unicode="&#xd9;" horiz-adv-x="670" d="M423 727l-93 119h99l55 -119h-61zM96 164q0 33 11 80l82 355l-71 -2l17 72q44 -2 64 -2h98q18 0 63 2l-17 -72l-62 2l-77 -336q-15 -66 -15 -102q0 -44 35 -72t91 -28q41 0 76 17.5t54 48.5q34 51 65 186l66 286l-71 -2l16 72q45 -2 65 -2h79q19 0 64 2l-16 -72l-63 2 l-74 -318q-24 -103 -43 -148.5t-52 -78.5q-63 -65 -183 -65q-89 0 -145.5 49t-56.5 126z" />
<glyph unicode="&#xda;" horiz-adv-x="670" d="M423 727l90 119h103l-126 -119h-67zM96 164q0 33 11 80l82 355l-71 -2l17 72q44 -2 64 -2h98q18 0 63 2l-17 -72l-62 2l-77 -336q-15 -66 -15 -102q0 -44 35 -72t91 -28q41 0 76 17.5t54 48.5q34 51 65 186l66 286l-71 -2l16 72q45 -2 65 -2h79q19 0 64 2l-16 -72l-63 2 l-74 -318q-24 -103 -43 -148.5t-52 -78.5q-63 -65 -183 -65q-89 0 -145.5 49t-56.5 126z" />
<glyph unicode="&#xdb;" horiz-adv-x="670" d="M314 727l120 120h105l63 -120h-70l-47 84l-94 -84h-77zM96 164q0 33 11 80l82 355l-71 -2l17 72q44 -2 64 -2h98q18 0 63 2l-17 -72l-62 2l-77 -336q-15 -66 -15 -102q0 -44 35 -72t91 -28q41 0 76 17.5t54 48.5q34 51 65 186l66 286l-71 -2l16 72q45 -2 65 -2h79 q19 0 64 2l-16 -72l-63 2l-74 -318q-24 -103 -43 -148.5t-52 -78.5q-63 -65 -183 -65q-89 0 -145.5 49t-56.5 126z" />
<glyph unicode="&#xdc;" horiz-adv-x="670" d="M557 730q-22 0 -38 16t-16 38q0 23 16 39t39 16q22 0 38 -16.5t16 -38.5t-16.5 -38t-38.5 -16zM369 730q-22 0 -38 16t-16 38q0 23 16 39t39 16q22 0 38 -16.5t16 -38.5t-16.5 -38t-38.5 -16zM96 164q0 33 11 80l82 355l-71 -2l17 72q44 -2 64 -2h98q18 0 63 2l-17 -72 l-62 2l-77 -336q-15 -66 -15 -102q0 -44 35 -72t91 -28q41 0 76 17.5t54 48.5q34 51 65 186l66 286l-71 -2l16 72q45 -2 65 -2h79q19 0 64 2l-16 -72l-63 2l-74 -318q-24 -103 -43 -148.5t-52 -78.5q-63 -65 -183 -65q-89 0 -145.5 49t-56.5 126z" />
<glyph unicode="&#xdd;" horiz-adv-x="572" d="M367 727l90 119h103l-126 -119h-67zM126 -2l17 72l61 -2l53 228l-119 303l-66 -2l16 72q27 -2 49 -2h74q33 0 102 2l-16 -72l-67 2l89 -236l199 236l-75 -2l16 72q40 -2 91 -2h75q28 0 56 2l-16 -72l-55 2l-264 -316l-50 -215l70 2l-16 -72q-35 2 -69 2h-92q-31 0 -63 -2 z" />
<glyph unicode="&#xde;" horiz-adv-x="552" d="M2 -2l16 72l58 -2l123 531l-67 -2l16 72q47 -2 66 -2h92q18 0 60 2l-16 -72l-59 2l-14 -59h10q87 0 125.5 -7t67.5 -29q71 -51 71 -147q0 -75 -39.5 -128.5t-107.5 -73.5q-44 -12 -183 -12h-35l-18 -75l74 2l-17 -72q-37 2 -73 2h-92q-28 0 -58 -2zM201 212q14 1 29 1h77 q71 0 111 38t40 106q0 67 -42 93q-19 12 -43.5 15.5t-89.5 4.5q-13 0 -22 1z" />
<glyph unicode="&#xdf;" horiz-adv-x="577" d="M-21 -1l15 65l60 -1l70 300h-69l16 70h69l9 38q47 203 219 203q80 0 131.5 -42t51.5 -108q0 -69 -54 -109q-26 -19 -75 -32q105 -43 105 -163q0 -98 -56.5 -164t-140.5 -66q-54 0 -105 27l23 62q41 -19 70 -19q57 0 88 48q36 54 36 122q0 34 -15 63.5t-40 46.5 q-29 19 -83 23l15 63q9 -1 22 -1q59 0 92 24t33 68q0 36 -29.5 61.5t-71.5 25.5q-72 0 -111 -74q-16 -32 -39 -132l-77 -335l65 1l-15 -65q-32 1 -65 1h-83q-30 0 -61 -1z" />
<glyph unicode="&#xe0;" horiz-adv-x="509" d="M299 530l-105 140h93l72 -140h-60zM19 129q0 68 52.5 110.5t136.5 42.5q63 0 140 -26l14 59q4 15 4 30q0 26 -23.5 43.5t-60.5 17.5q-75 0 -141 -61l-50 41q84 90 196 90q74 0 118 -33.5t44 -90.5q0 -18 -5 -43l-57 -246l64 1l-15 -65q-31 1 -64 1h-46q-16 0 -37 -1 l10 44q-68 -53 -140 -53q-59 0 -99.5 40t-40.5 99zM104 132q0 -32 21.5 -52t56.5 -20q56 0 134 55l19 84q-57 18 -117 18q-51 0 -82.5 -23.5t-31.5 -61.5z" />
<glyph unicode="&#xe1;" horiz-adv-x="509" d="M268 530l100 140h96l-133 -140h-63zM19 129q0 68 52.5 110.5t136.5 42.5q63 0 140 -26l14 59q4 15 4 30q0 26 -23.5 43.5t-60.5 17.5q-75 0 -141 -61l-50 41q84 90 196 90q74 0 118 -33.5t44 -90.5q0 -18 -5 -43l-57 -246l64 1l-15 -65q-31 1 -64 1h-46q-16 0 -37 -1 l10 44q-68 -53 -140 -53q-59 0 -99.5 40t-40.5 99zM104 132q0 -32 21.5 -52t56.5 -20q56 0 134 55l19 84q-57 18 -117 18q-51 0 -82.5 -23.5t-31.5 -61.5z" />
<glyph unicode="&#xe2;" horiz-adv-x="509" d="M184 531l136 139h82l66 -139h-67l-47 91l-98 -91h-72zM19 129q0 68 52.5 110.5t136.5 42.5q63 0 140 -26l14 59q4 15 4 30q0 26 -23.5 43.5t-60.5 17.5q-75 0 -141 -61l-50 41q84 90 196 90q74 0 118 -33.5t44 -90.5q0 -18 -5 -43l-57 -246l64 1l-15 -65q-31 1 -64 1h-46 q-16 0 -37 -1l10 44q-68 -53 -140 -53q-59 0 -99.5 40t-40.5 99zM104 132q0 -32 21.5 -52t56.5 -20q56 0 134 55l19 84q-57 18 -117 18q-51 0 -82.5 -23.5t-31.5 -61.5z" />
<glyph unicode="&#xe3;" horiz-adv-x="509" d="M207 543q10 42 20 63q9 19 27.5 31.5t35.5 12.5q22 0 84 -35q26 -15 37 -15q30 0 39 50h50q-25 -109 -79 -109q-29 0 -103 41q-18 10 -29 10q-24 0 -33 -49h-49zM19 129q0 68 52.5 110.5t136.5 42.5q63 0 140 -26l14 59q4 15 4 30q0 26 -23.5 43.5t-60.5 17.5 q-75 0 -141 -61l-50 41q84 90 196 90q74 0 118 -33.5t44 -90.5q0 -18 -5 -43l-57 -246l64 1l-15 -65q-31 1 -64 1h-46q-16 0 -37 -1l10 44q-68 -53 -140 -53q-59 0 -99.5 40t-40.5 99zM104 132q0 -32 21.5 -52t56.5 -20q56 0 134 55l19 84q-57 18 -117 18q-51 0 -82.5 -23.5 t-31.5 -61.5z" />
<glyph unicode="&#xe4;" horiz-adv-x="510" d="M420 544q-21 0 -36.5 15.5t-15.5 36.5q0 22 15 37.5t37 15.5t37.5 -15.5t15.5 -37.5q0 -21 -15.5 -36.5t-37.5 -15.5zM252 544q-21 0 -36.5 15.5t-15.5 36.5q0 22 15 37.5t37 15.5t37.5 -15.5t15.5 -37.5q0 -21 -15.5 -36.5t-37.5 -15.5zM19 129q0 68 52.5 110.5 t136.5 42.5q63 0 140 -26l14 59q4 15 4 30q0 26 -23.5 43.5t-60.5 17.5q-75 0 -141 -61l-50 41q84 90 196 90q74 0 118 -33.5t44 -90.5q0 -18 -5 -43l-57 -246l64 1l-15 -65q-31 1 -64 1h-46q-16 0 -37 -1l10 44q-68 -53 -140 -53q-59 0 -99.5 40t-40.5 99zM104 132 q0 -32 21.5 -52t56.5 -20q56 0 134 55l19 84q-57 18 -117 18q-51 0 -82.5 -23.5t-31.5 -61.5z" />
<glyph unicode="&#xe5;" horiz-adv-x="509" d="M334 515q-36 0 -61.5 25.5t-25.5 61.5t25.5 61.5t62.5 25.5q35 0 60.5 -26t25.5 -61q0 -36 -25.5 -61.5t-61.5 -25.5zM333 564q16 0 27.5 11.5t11.5 26.5q0 16 -11.5 27.5t-26.5 11.5q-16 0 -27.5 -11.5t-11.5 -27.5q0 -15 11.5 -26.5t26.5 -11.5zM19 129 q0 68 52.5 110.5t136.5 42.5q63 0 140 -26l14 59q4 15 4 30q0 26 -23.5 43.5t-60.5 17.5q-75 0 -141 -61l-50 41q84 90 196 90q74 0 118 -33.5t44 -90.5q0 -18 -5 -43l-57 -246l64 1l-15 -65q-31 1 -64 1h-46q-16 0 -37 -1l10 44q-68 -53 -140 -53q-59 0 -99.5 40t-40.5 99z M104 132q0 -32 21.5 -52t56.5 -20q56 0 134 55l19 84q-57 18 -117 18q-51 0 -82.5 -23.5t-31.5 -61.5z" />
<glyph unicode="&#xe6;" horiz-adv-x="828" d="M18 127q0 66 54.5 110.5t136.5 44.5q55 0 145 -26q16 64 16 86q0 31 -23.5 47.5t-67.5 16.5q-78 0 -135 -62l-52 40q78 92 199 92q118 0 145 -74q71 74 167 74q88 0 140 -61t52 -163q0 -23 -2 -39h-369q-1 -12 -1 -29q0 -56 34 -90t89 -34q78 0 144 67l62 -32 q-81 -105 -210 -105q-126 0 -177 105q-80 -105 -195 -105q-67 0 -109.5 38t-42.5 99zM436 270h277q-1 60 -23 90q-34 46 -96 46q-54 0 -98 -38t-60 -98zM103 132q0 -32 23 -52t60 -20q65 0 109 44q31 33 46 95q-54 17 -115 17q-55 0 -89 -23.5t-34 -60.5z" />
<glyph unicode="&#xe7;" horiz-adv-x="490" d="M31 198q0 113 74 195.5t177 82.5q88 0 139 -66l13 56h67q-28 -105 -37 -157h-66q-4 45 -33.5 71t-77.5 26q-75 0 -122 -67q-49 -70 -49 -151q0 -55 32.5 -91.5t81.5 -36.5q82 0 142 84l55 -36q-81 -118 -202 -118q-86 0 -140 58t-54 150zM157 -50h85l-14 -63 q-22 -100 -108 -100l10 41q20 2 34 15.5t17 32.5h-41z" />
<glyph unicode="&#xe8;" horiz-adv-x="516" d="M290 530l-105 140h93l72 -140h-60zM31 194q0 117 74.5 199.5t180.5 82.5q89 0 143 -60.5t54 -159.5q0 -14 -3 -43h-368q-1 -12 -1 -27q0 -58 33.5 -92t89.5 -34q74 0 143 68l65 -31q-76 -107 -207 -107q-95 0 -149.5 55t-54.5 149zM125 270h277q-1 63 -33 99.5t-86 36.5 q-68 0 -119 -61q-25 -31 -39 -75z" />
<glyph unicode="&#xe9;" horiz-adv-x="516" d="M265 530l100 140h96l-133 -140h-63zM31 194q0 117 74.5 199.5t180.5 82.5q89 0 143 -60.5t54 -159.5q0 -14 -3 -43h-368q-1 -12 -1 -27q0 -58 33.5 -92t89.5 -34q74 0 143 68l65 -31q-76 -107 -207 -107q-95 0 -149.5 55t-54.5 149zM125 270h277q-1 63 -33 99.5t-86 36.5 q-68 0 -119 -61q-25 -31 -39 -75z" />
<glyph unicode="&#xea;" horiz-adv-x="516" d="M174 531l136 139h82l66 -139h-67l-47 91l-98 -91h-72zM31 194q0 117 74.5 199.5t180.5 82.5q89 0 143 -60.5t54 -159.5q0 -14 -3 -43h-368q-1 -12 -1 -27q0 -58 33.5 -92t89.5 -34q74 0 143 68l65 -31q-76 -107 -207 -107q-95 0 -149.5 55t-54.5 149zM125 270h277 q-1 63 -33 99.5t-86 36.5q-68 0 -119 -61q-25 -31 -39 -75z" />
<glyph unicode="&#xeb;" horiz-adv-x="516" d="M412 544q-21 0 -36.5 15.5t-15.5 36.5q0 22 15 37.5t37 15.5t37.5 -15.5t15.5 -37.5q0 -21 -15.5 -36.5t-37.5 -15.5zM244 544q-21 0 -36.5 15.5t-15.5 36.5q0 22 15 37.5t37 15.5t37.5 -15.5t15.5 -37.5q0 -21 -15.5 -36.5t-37.5 -15.5zM31 194q0 117 74.5 199.5 t180.5 82.5q89 0 143 -60.5t54 -159.5q0 -14 -3 -43h-368q-1 -12 -1 -27q0 -58 33.5 -92t89.5 -34q74 0 143 68l65 -31q-76 -107 -207 -107q-95 0 -149.5 55t-54.5 149zM125 270h277q-1 63 -33 99.5t-86 36.5q-68 0 -119 -61q-25 -31 -39 -75z" />
<glyph unicode="&#xec;" horiz-adv-x="276" d="M169 530l-105 140h93l72 -140h-60zM-16 -1l15 65l59 -1l79 342l-67 -2l15 64q50 -1 66 -1h47q7 0 37 1l-94 -404l68 1l-15 -65q-45 1 -67 1h-83q-18 0 -60 -1z" />
<glyph unicode="&#xed;" horiz-adv-x="276" d="M168 530l100 140h96l-133 -140h-63zM-16 -1l15 65l59 -1l79 342l-67 -2l15 64q50 -1 66 -1h47q7 0 37 1l-94 -404l68 1l-15 -65q-45 1 -67 1h-83q-18 0 -60 -1z" />
<glyph unicode="&#xee;" horiz-adv-x="276" d="M65 531l123 139h82l52 -139h-66l-34 91l-85 -91h-72zM-16 -1l15 65l59 -1l79 342l-67 -2l15 64q50 -1 66 -1h47q7 0 37 1l-94 -404l68 1l-15 -65q-45 1 -67 1h-83q-18 0 -60 -1z" />
<glyph unicode="&#xef;" horiz-adv-x="276" d="M279 544q-21 0 -36.5 15.5t-15.5 36.5q0 22 15 37.5t37 15.5t37.5 -15.5t15.5 -37.5q0 -21 -15.5 -36.5t-37.5 -15.5zM141 544q-21 0 -36.5 15.5t-15.5 36.5q0 22 15 37.5t37 15.5t37.5 -15.5t15.5 -37.5q0 -21 -15.5 -36.5t-37.5 -15.5zM-16 -1l15 65l59 -1l79 342 l-67 -2l15 64q50 -1 66 -1h47q7 0 37 1l-94 -404l68 1l-15 -65q-45 1 -67 1h-83q-18 0 -60 -1z" />
<glyph unicode="&#xf0;" horiz-adv-x="529" d="M29 190q0 115 77 199t182 84q35 0 78 -24q-33 64 -77 108l-88 -45l-33 38l84 45q-15 13 -17 16q-20 19 -33 26l50 42q21 -14 65 -51l84 45l36 -39l-85 -44q147 -162 147 -310q0 -67 -28.5 -131t-75.5 -101q-71 -58 -167 -58q-91 0 -145 54.5t-54 145.5zM114 186 q0 -57 33 -91.5t87 -34.5q67 0 113 51q67 73 67 173q0 55 -31 88.5t-82 33.5q-76 0 -131.5 -65t-55.5 -155z" />
<glyph unicode="&#xf1;" horiz-adv-x="555" d="M218 543q10 42 20 63q9 19 27.5 31.5t35.5 12.5q22 0 84 -35q26 -15 37 -15q30 0 39 50h50q-25 -109 -79 -109q-29 0 -103 41q-18 10 -29 10q-24 0 -33 -49h-49zM-16 -1l15 65l59 -1l79 342l-68 -2l15 64q50 -1 67 -1h42q10 0 42 1l-14 -59q78 68 165 68q46 0 78 -29 t32 -71q0 -33 -14 -98l-49 -215l67 1l-15 -65q-45 1 -58 1h-39q-13 0 -53 -1l68 295q9 39 9 64q0 21 -18.5 34.5t-46.5 13.5q-77 0 -146 -86l-60 -257l69 1l-15 -65q-46 1 -68 1h-83q-18 0 -60 -1z" />
<glyph unicode="&#xf2;" horiz-adv-x="529" d="M302 530l-105 140h93l72 -140h-60zM29 189q0 119 80.5 203t195.5 84q86 0 140 -54t54 -141q0 -68 -28.5 -131.5t-75.5 -101.5q-71 -58 -167 -58q-91 0 -145 54t-54 145zM114 186q0 -57 33 -91.5t87 -34.5q67 0 113 51q67 73 67 173q0 55 -31 88.5t-82 33.5 q-76 0 -131.5 -65t-55.5 -155z" />
<glyph unicode="&#xf3;" horiz-adv-x="529" d="M284 530l100 140h96l-133 -140h-63zM29 189q0 119 80.5 203t195.5 84q86 0 140 -54t54 -141q0 -68 -28.5 -131.5t-75.5 -101.5q-71 -58 -167 -58q-91 0 -145 54t-54 145zM114 186q0 -57 33 -91.5t87 -34.5q67 0 113 51q67 73 67 173q0 55 -31 88.5t-82 33.5 q-76 0 -131.5 -65t-55.5 -155z" />
<glyph unicode="&#xf4;" horiz-adv-x="529" d="M184 531l136 139h82l66 -139h-67l-47 91l-98 -91h-72zM29 189q0 119 80.5 203t195.5 84q86 0 140 -54t54 -141q0 -68 -28.5 -131.5t-75.5 -101.5q-71 -58 -167 -58q-91 0 -145 54t-54 145zM114 186q0 -57 33 -91.5t87 -34.5q67 0 113 51q67 73 67 173q0 55 -31 88.5 t-82 33.5q-76 0 -131.5 -65t-55.5 -155z" />
<glyph unicode="&#xf5;" horiz-adv-x="529" d="M207 543q10 42 20 63q9 19 27.5 31.5t35.5 12.5q22 0 84 -35q26 -15 37 -15q30 0 39 50h50q-25 -109 -79 -109q-29 0 -103 41q-18 10 -29 10q-24 0 -33 -49h-49zM29 189q0 119 80.5 203t195.5 84q86 0 140 -54t54 -141q0 -68 -28.5 -131.5t-75.5 -101.5q-71 -58 -167 -58 q-91 0 -145 54t-54 145zM114 186q0 -57 33 -91.5t87 -34.5q67 0 113 51q67 73 67 173q0 55 -31 88.5t-82 33.5q-76 0 -131.5 -65t-55.5 -155z" />
<glyph unicode="&#xf6;" horiz-adv-x="529" d="M428 544q-21 0 -36.5 15.5t-15.5 36.5q0 22 15 37.5t37 15.5t37.5 -15.5t15.5 -37.5q0 -21 -15.5 -36.5t-37.5 -15.5zM260 544q-21 0 -36.5 15.5t-15.5 36.5q0 22 15 37.5t37 15.5t37.5 -15.5t15.5 -37.5q0 -21 -15.5 -36.5t-37.5 -15.5zM29 189q0 119 80.5 203t195.5 84 q86 0 140 -54t54 -141q0 -68 -28.5 -131.5t-75.5 -101.5q-71 -58 -167 -58q-91 0 -145 54t-54 145zM114 186q0 -57 33 -91.5t87 -34.5q67 0 113 51q67 73 67 173q0 55 -31 88.5t-82 33.5q-76 0 -131.5 -65t-55.5 -155z" />
<glyph unicode="&#xf7;" d="M312 447q-19 0 -32.5 13.5t-13.5 32.5t14 32.5t33 13.5q18 0 31.5 -13.5t13.5 -32.5t-13.5 -32.5t-32.5 -13.5zM92 298l16 70h353l-16 -70h-353zM199 174q0 19 14 32.5t33 13.5q18 0 31.5 -13.5t13.5 -32.5t-13.5 -32.5t-32.5 -13.5t-32.5 13.5t-13.5 32.5z" />
<glyph unicode="&#xf8;" horiz-adv-x="529" d="M11 3l-30 40l66 53q-18 49 -18 96q0 116 80.5 200t192.5 84q93 0 150 -61l65 51l31 -41l-67 -54q18 -44 18 -90q0 -68 -28.5 -131.5t-75.5 -101.5q-71 -58 -167 -58q-98 0 -153 64zM119 150l269 217q-33 39 -88 39q-79 0 -132 -66q-54 -70 -54 -147q0 -11 5 -43zM141 104 q34 -44 94 -44q67 0 113 51q30 34 48.5 79t18.5 85q0 11 -5 43z" />
<glyph unicode="&#xf9;" horiz-adv-x="552" d="M307 530l-105 140h93l72 -140h-60zM58 109q0 25 6 49l57 247l-67 -2l15 64q46 -1 66 -1h54q8 0 30 1l-67 -287q-8 -37 -8 -61q0 -59 65 -59q67 0 147 83l60 262l-71 -2l14 64q45 -1 65 -1h53l22 1q8 0 15 -1l-93 -403l63 1l-15 -65q-31 1 -63 1h-51q-6 0 -32 -1l13 59 q-88 -68 -162 -68q-51 0 -83.5 33.5t-32.5 85.5z" />
<glyph unicode="&#xfa;" horiz-adv-x="552" d="M286 530l100 140h96l-133 -140h-63zM58 109q0 25 6 49l57 247l-67 -2l15 64q46 -1 66 -1h54q8 0 30 1l-67 -287q-8 -37 -8 -61q0 -59 65 -59q67 0 147 83l60 262l-71 -2l14 64q45 -1 65 -1h53l22 1q8 0 15 -1l-93 -403l63 1l-15 -65q-31 1 -63 1h-51q-6 0 -32 -1l13 59 q-88 -68 -162 -68q-51 0 -83.5 33.5t-32.5 85.5z" />
<glyph unicode="&#xfb;" horiz-adv-x="552" d="M186 531l136 139h82l66 -139h-67l-47 91l-98 -91h-72zM58 109q0 25 6 49l57 247l-67 -2l15 64q46 -1 66 -1h54q8 0 30 1l-67 -287q-8 -37 -8 -61q0 -59 65 -59q67 0 147 83l60 262l-71 -2l14 64q45 -1 65 -1h53l22 1q8 0 15 -1l-93 -403l63 1l-15 -65q-31 1 -63 1h-51 q-6 0 -32 -1l13 59q-88 -68 -162 -68q-51 0 -83.5 33.5t-32.5 85.5z" />
<glyph unicode="&#xfc;" horiz-adv-x="552" d="M428 544q-21 0 -36.5 15.5t-15.5 36.5q0 22 15 37.5t37 15.5t37.5 -15.5t15.5 -37.5q0 -21 -15.5 -36.5t-37.5 -15.5zM260 544q-21 0 -36.5 15.5t-15.5 36.5q0 22 15 37.5t37 15.5t37.5 -15.5t15.5 -37.5q0 -21 -15.5 -36.5t-37.5 -15.5zM58 109q0 25 6 49l57 247l-67 -2 l15 64q46 -1 66 -1h54q8 0 30 1l-67 -287q-8 -37 -8 -61q0 -59 65 -59q67 0 147 83l60 262l-71 -2l14 64q45 -1 65 -1h53l22 1q8 0 15 -1l-93 -403l63 1l-15 -65q-31 1 -63 1h-51q-6 0 -32 -1l13 59q-88 -68 -162 -68q-51 0 -83.5 33.5t-32.5 85.5z" />
<glyph unicode="&#xfd;" horiz-adv-x="483" d="M272 530l100 140h96l-133 -140h-63zM143 -4l-45 409l-60 -2l15 64q18 -1 44 -1h76q48 0 79 1l-15 -64l-61 2l29 -318l183 318l-64 -2l15 64q22 -1 70 -1h72q36 0 56 1l-15 -64l-54 2l-373 -615q-11 1 -35 1h-60q-23 0 -36 -1l15 65l76 -2z" />
<glyph unicode="&#xfe;" horiz-adv-x="567" d="M130 63l-48 -209l69 1l-15 -65q-21 1 -68 1h-84q-40 0 -58 -1l15 65l58 -1l173 752l-67 -2l15 64q47 -1 66 -1h46q8 0 33 1l-58 -252q66 60 151 60q80 0 130.5 -54.5t50.5 -142.5q0 -122 -74 -205.5t-181 -83.5q-88 0 -154 73zM160 168q0 -47 32.5 -77.5t82.5 -30.5 q94 0 148 96q32 58 32 119q0 58 -32.5 95t-82.5 37q-66 0 -117 -56q-26 -30 -44.5 -83t-18.5 -100z" />
<glyph unicode="&#xff;" horiz-adv-x="483" d="M406 544q-21 0 -36.5 15.5t-15.5 36.5q0 22 15 37.5t37 15.5t37.5 -15.5t15.5 -37.5q0 -21 -15.5 -36.5t-37.5 -15.5zM238 544q-21 0 -36.5 15.5t-15.5 36.5q0 22 15 37.5t37 15.5t37.5 -15.5t15.5 -37.5q0 -21 -15.5 -36.5t-37.5 -15.5zM143 -4l-45 409l-60 -2l15 64 q18 -1 44 -1h76q48 0 79 1l-15 -64l-61 2l29 -318l183 318l-64 -2l15 64q22 -1 70 -1h72q36 0 56 1l-15 -64l-54 2l-373 -615q-11 1 -35 1h-60q-23 0 -36 -1l15 65l76 -2z" />
<glyph unicode="&#x152;" horiz-adv-x="968" d="M51 271q0 88 40 172.5t107 137.5q113 89 280 89q8 0 92 -2q27 -1 97 -1h271q37 0 76 2q-17 -54 -50 -217h-76l34 146h-260l-52 -224h219l-16 -69h-219l-54 -236h265l34 149h76q-24 -84 -51 -220q-39 2 -75 2h-265q-54 0 -76 -1q-74 -3 -101 -3q-136 0 -216 74t-80 201z M144 265q0 -94 64 -146t180 -52q30 0 60 2l122 529q-92 0 -120.5 -2t-70.5 -12q-101 -23 -168 -114t-67 -205z" />
<glyph unicode="&#x153;" horiz-adv-x="849" d="M-12 185q0 120 80 205.5t192 85.5q131 0 171 -110q74 110 192 110q86 0 140 -59q52 -59 52 -165q0 -23 -2 -39h-365q-3 -23 -3 -38q0 -50 36 -82.5t91 -32.5q40 0 78 18t61 48l62 -33q-35 -49 -88.5 -76t-116.5 -27q-133 0 -178 108q-80 -108 -201 -108q-91 0 -146 53 t-55 142zM460 270h278v14q0 53 -34.5 87.5t-86.5 34.5q-53 0 -95.5 -37t-61.5 -99zM73 191q0 -59 34 -95t90 -36q75 0 129 64.5t54 153.5q0 58 -32 93t-86 35q-78 0 -133.5 -63t-55.5 -152z" />
<glyph unicode="&#x178;" horiz-adv-x="572" d="M509 730q-22 0 -38 16t-16 38q0 23 16 39t39 16q22 0 38 -16.5t16 -38.5t-16.5 -38t-38.5 -16zM321 730q-22 0 -38 16t-16 38q0 23 16 39t39 16q22 0 38 -16.5t16 -38.5t-16.5 -38t-38.5 -16zM126 -2l17 72l61 -2l53 228l-119 303l-66 -2l16 72q27 -2 49 -2h74 q33 0 102 2l-16 -72l-67 2l89 -236l199 236l-75 -2l16 72q40 -2 91 -2h75q28 0 56 2l-16 -72l-55 2l-264 -316l-50 -215l70 2l-16 -72q-35 2 -69 2h-92q-31 0 -63 -2z" />
<glyph unicode="&#x2c6;" d="M163 531l136 139h82l66 -139h-67l-47 91l-98 -91h-72z" />
<glyph unicode="&#x2dc;" d="M159 543q10 42 20 63q9 19 27.5 31.5t35.5 12.5q22 0 84 -35q26 -15 37 -15q30 0 39 50h50q-25 -109 -79 -109q-29 0 -103 41q-18 10 -29 10q-24 0 -33 -49h-49z" />
<glyph unicode="&#x2000;" horiz-adv-x="440" />
<glyph unicode="&#x2001;" horiz-adv-x="880" />
<glyph unicode="&#x2002;" horiz-adv-x="440" />
<glyph unicode="&#x2003;" horiz-adv-x="880" />
<glyph unicode="&#x2004;" horiz-adv-x="293" />
<glyph unicode="&#x2005;" horiz-adv-x="220" />
<glyph unicode="&#x2006;" horiz-adv-x="146" />
<glyph unicode="&#x2007;" horiz-adv-x="146" />
<glyph unicode="&#x2008;" horiz-adv-x="110" />
<glyph unicode="&#x2009;" horiz-adv-x="176" />
<glyph unicode="&#x200a;" horiz-adv-x="48" />
<glyph unicode="&#x2010;" horiz-adv-x="226" d="M-7 206l17 74h226l-17 -74h-226z" />
<glyph unicode="&#x2011;" horiz-adv-x="226" d="M-7 206l17 74h226l-17 -74h-226z" />
<glyph unicode="&#x2012;" horiz-adv-x="226" d="M-7 206l17 74h226l-17 -74h-226z" />
<glyph unicode="&#x2013;" d="M49 206l17 74h389l-17 -74h-389z" />
<glyph unicode="&#x2014;" horiz-adv-x="686" d="M-7 206l17 74h686l-17 -74h-686z" />
<glyph unicode="&#x2018;" horiz-adv-x="214" d="M103 436l24 105q18 80 43.5 107.5t85.5 29.5l-10 -43q-31 -4 -44.5 -20.5t-23.5 -61.5h42l-27 -117h-90z" />
<glyph unicode="&#x2019;" horiz-adv-x="211" d="M100 426l10 43q31 4 44.5 20t23.5 61h-42l27 117h90l-24 -105q-12 -52 -18.5 -69.5t-18.5 -32.5q-32 -35 -83 -35q-5 0 -9 1z" />
<glyph unicode="&#x201a;" horiz-adv-x="211" d="M9 0l27 117h90l-24 -105q-13 -54 -19 -71t-18 -31q-30 -35 -84 -35q-5 0 -8 1l10 43q30 3 45 20.5t22 60.5h-41z" />
<glyph unicode="&#x201c;" horiz-adv-x="371" d="M260 436l24 105q18 80 43.5 107.5t85.5 29.5l-10 -43q-30 -4 -44 -21t-23 -61h41l-27 -117h-90zM103 436l24 105q18 80 43.5 107.5t85.5 29.5l-10 -43q-31 -4 -44.5 -20.5t-23.5 -61.5h42l-27 -117h-90z" />
<glyph unicode="&#x201d;" horiz-adv-x="371" d="M261 426l10 43q31 4 44.5 20t23.5 61h-42l27 117h90l-24 -105q-13 -56 -18.5 -72t-18.5 -30q-32 -35 -83 -35q-5 0 -9 1zM104 426l10 43q31 4 44.5 20t23.5 61h-42l27 117h90l-24 -105q-12 -52 -18.5 -69.5t-18.5 -32.5q-32 -35 -83 -35q-5 0 -9 1z" />
<glyph unicode="&#x201e;" horiz-adv-x="371" d="M144 -81q31 3 45.5 20.5t22.5 60.5h-42l27 117h90l-24 -105q-13 -56 -18.5 -72t-18.5 -30q-30 -35 -84 -35q-4 0 -8 1zM13 0l27 117h90l-24 -105q-13 -54 -19 -71t-18 -31q-30 -35 -84 -35q-5 0 -8 1l10 43q30 3 45 20.5t22 60.5h-41z" />
<glyph unicode="&#x2022;" horiz-adv-x="667" d="M335 200q-57 0 -98 40.5t-41 97.5q0 58 41 98.5t100 40.5q55 0 95.5 -41t40.5 -97q0 -58 -40.5 -98.5t-97.5 -40.5z" />
<glyph unicode="&#x2026;" horiz-adv-x="627" d="M423 0l27 117h89l-27 -117h-89zM214 0l27 117h89l-27 -117h-89zM5 0l27 117h89l-27 -117h-89z" />
<glyph unicode="&#x202f;" horiz-adv-x="176" />
<glyph unicode="&#x2039;" horiz-adv-x="325" d="M155 11l-102 268l184 187h89l-198 -202l101 -253h-74z" />
<glyph unicode="&#x203a;" horiz-adv-x="325" d="M-1 11l198 202l-101 253h74l102 -268l-184 -187h-89z" />
<glyph unicode="&#x205f;" horiz-adv-x="220" />
<glyph unicode="&#x20ac;" horiz-adv-x="857" d="M52 245l39 62h75q2 25 10 56h-99l39 62h80q26 59 63 103q57 68 141 109t169 41q122 0 195 -76l15 65h70q-10 -35 -46 -199h-70v12q0 54 -47 90t-118 36q-79 0 -152 -49t-118 -132h378l-39 -62h-365q-9 -31 -12 -56h340l-39 -62h-302q8 -83 61 -133.5t131 -50.5 q67 0 128 36.5t103 101.5l65 -54q-57 -75 -133 -115.5t-160 -40.5q-123 0 -201 69.5t-87 186.5h-114z" />
<glyph unicode="&#x2122;" horiz-adv-x="912" d="M411 286l11 47l37 -1l67 290l-43 -1l10 47q32 -1 43 -1h45q17 0 36 1l53 -280l180 280q13 -1 32 -1h55q17 0 39 1l-11 -47l-35 1l-67 -290l41 1l-11 -47q-21 1 -43 1h-56q-19 0 -40 -1l11 47l36 -1l63 272l-207 -317h-24l-63 318l-63 -273l44 1l-11 -47q-21 1 -42 1h-46 q-20 0 -41 -1zM129 286l11 47l37 -1l67 290h-83l-23 -100h-49l5 18l29 128q19 -1 41 -1h233q24 0 50 1q-8 -27 -34 -146h-50l23 100h-81l-66 -290l43 1l-11 -47q-21 1 -42 1h-59q-20 0 -41 -1z" />
<glyph unicode="&#x25fc;" horiz-adv-x="465" d="M0 465h465v-465h-465v465z" />
</font>
</defs>
</svg>
